<svg aria-hidden="true" style="width:0;height:0;position:absolute;overflow:hidden" xmlns="http://www.w3.org/2000/svg"><defs><symbol id="icon-btn-arrow" viewBox="0 0 32 32"><path stroke-linejoin="round" stroke-linecap="round" stroke-width="6.4" d="M8.121 3.2 23.095 16 8.121 28.8"/></symbol><symbol id="icon-burger" viewBox="0 0 48 32"><path d="M0 5.34V0h48v5.34H0zm0 13.32h48v-5.32H0v5.32zM0 32h48v-5.34H0V32z"/></symbol><symbol id="icon-cross" viewBox="0 0 32 32"><path d="M32 3.223 28.777 0 16 12.777 3.223 0 0 3.223 12.777 16 0 28.777 3.223 32 16 19.223 28.777 32 32 28.777 19.223 16 32 3.223z"/></symbol><symbol id="icon-facebook" viewBox="0 0 16 32"><path fill="#fff" style="fill:var(--color2,#fff)" d="M14.143 15.972h-4.034v14.865H3.997V15.972H1.09v-5.224h2.907V7.367c0-2.418 1.142-6.203 6.166-6.203l4.527.019v5.071h-3.285c-.539 0-1.296.271-1.296 1.424v3.075h4.567l-.534 5.219z"/></symbol><symbol id="icon-github" viewBox="0 0 32 32"><path fill="#fff" style="fill:var(--color2,#fff)" d="M16 0C7.212 0 0 7.212 0 16c0 7.499 5.262 14.312 12.25 16v-5.293c-.692.152-1.33.156-2.034-.052-.946-.279-1.714-.909-2.284-1.869-.364-.613-1.008-1.278-1.68-1.23l-.165-1.868c1.453-.124 2.711.886 3.457 2.14.332.558.713.884 1.203 1.029.473.14.982.072 1.574-.137.149-1.186.692-1.63 1.102-2.255v-.001c-4.167-.622-5.828-2.832-6.488-4.578-.874-2.317-.405-5.212 1.14-7.041.03-.036.084-.129.063-.194-.708-2.139.155-3.909.187-4.097.817.242.95-.243 3.551 1.337l.449.27c.188.112.129.048.317.034A13.544 13.544 0 0 1 16 7.723c1.136.015 2.273.178 3.404.484l.145.015c-.013-.002.04-.009.127-.062 3.248-1.968 3.132-1.324 4.003-1.608.032.188.883 1.987.182 4.099-.095.291 2.816 2.956 1.203 7.235-.659 1.746-2.32 3.957-6.487 4.578v.001c.534.814 1.176 1.247 1.173 2.927V32C26.738 30.312 32 23.499 32 16c0-8.788-7.212-16-16-16z"/></symbol><symbol id="icon-house" viewBox="0 0 32 32"><path fill="#d31342" style="fill:var(--color3,#d31342)" d="M31.599 16.766c.58-.595.524-1.507-.125-2.037L17.173 3.056c-.649-.53-1.69-.518-2.325.025L.498 15.351c-.635.543-.667 1.454-.069 2.034l.36.35c.597.579 1.562.648 2.154.154l1.072-.896v13.116c0 .805.699 1.456 1.561 1.456h5.594c.862 0 1.561-.651 1.561-1.456v-9.176h7.135v9.176c-.012.804.604 1.455 1.466 1.455h5.928c.862 0 1.561-.651 1.561-1.456v-12.93l.662.542c.366.3 1.131.059 1.711-.536l.407-.417z"/></symbol><symbol id="icon-telegram" viewBox="0 0 32 32"><path fill="#fff" style="fill:var(--color2,#fff)" d="m12.613 19.671-.491 6.444c.702 0 1.006-.282 1.371-.62l3.293-2.937 6.822 4.663c1.251.651 2.133.308 2.47-1.074l4.479-19.586c.397-1.726-.669-2.401-1.888-1.978L2.346 13.989c-1.796.651-1.769 1.585-.305 2.009l6.73 1.954 15.632-9.129c.736-.455 1.405-.203.854.252L12.612 19.672z"/></symbol><symbol id="icon-arrow-right" viewBox="0 0 32 32"><path d="m19.414 27.414 10-10a2 2 0 0 0 0-2.828l-10-10a2 2 0 1 0-2.828 2.828L23.172 14H4a2 2 0 1 0 0 4h19.172l-6.586 6.586c-.39.39-.586.902-.586 1.414s.195 1.024.586 1.414a2 2 0 0 0 2.828 0z"/></symbol><symbol id="icon-icecream1" viewBox="0 0 32 32"><path d="M8.225 9.526 16 32l7.775-22.474zM13.027 3.678A4.814 4.814 0 0 0 8.225 8.48h9.604a4.801 4.801 0 0 0-4.802-4.802zM16 3.149c.889-.51 2.143-.98 4.194-.634A4.812 4.812 0 0 0 15.98 0a4.724 4.724 0 0 0-4.214 2.541c1.757-.431 3.345.124 4.234.608zM17.196 4.038c1.196 1.117 1.953 2.692 1.953 4.443h4.626c0-2.639-2.548-5.828-6.579-4.443z"/></symbol><symbol id="icon-icecream2" viewBox="0 0 32 32"><path d="M31.117 5.104a8.267 8.267 0 0 0-1.837-2.699A8.305 8.305 0 0 0 23.452.026c-1.094 0-2.161.21-3.169.625a8.274 8.274 0 0 0-2.555 1.654 8.302 8.302 0 0 0-3.539-.787 8.29 8.29 0 0 0-3.155.619A8.286 8.286 0 0 0 6.465 6.76a8.357 8.357 0 0 0-.577 3.13 8.431 8.431 0 0 0 1.305 4.451L.553 27.55a3.045 3.045 0 0 0-.291 1.841c.099.647.396 1.232.859 1.693l.003.003a3.03 3.03 0 0 0 2.149.886c.496 0 .99-.122 1.429-.354l13.078-6.894a8.44 8.44 0 0 0 4.378 1.22 8.337 8.337 0 0 0 3.169-.619 8.28 8.28 0 0 0 4.429-4.312 8.287 8.287 0 0 0 .688-2.758 8.362 8.362 0 0 0-.835-4.294 8.235 8.235 0 0 0 1.632-2.665c.374-.995.552-2.041.531-3.108s-.242-2.105-.655-3.084zm-8.959 18.544a6.174 6.174 0 0 1-1.816-.273 6.064 6.064 0 0 1-2.469-1.468l-7.864-7.714-.113-.114a6.053 6.053 0 0 1-1.402-2.326c-.687-2.09-.231-4.49 1.406-6.146a6.01 6.01 0 0 1 4.289-1.791c1.179 0 2.358.344 3.375 1.032a.829.829 0 0 0 .465.143.813.813 0 0 0 .645-.316 6.013 6.013 0 0 1 4.779-2.351 6.01 6.01 0 0 1 4.22 1.723c2.338 2.29 2.414 6.062.169 8.444a6.035 6.035 0 0 1-.619.572.81.81 0 0 0-.155 1.103 6.033 6.033 0 0 1-.606 7.686 5.98 5.98 0 0 1-4.302 1.797zM3.631 29.587a.774.774 0 0 1-.358.089.746.746 0 0 1-.519-.208l-.012-.012a.756.756 0 0 1-.137-.875l6.206-12.345 7.043 6.908-12.223 6.443z"/><path d="M3.274 32c-.802 0-1.56-.306-2.135-.862l-.033-.033a3.074 3.074 0 0 1-.576-3.568l6.633-13.195A8.449 8.449 0 0 1 5.862 9.89a8.374 8.374 0 0 1 .579-3.14 8.173 8.173 0 0 1 1.807-2.777 8.32 8.32 0 0 1 5.942-2.482c1.236 0 2.425.263 3.534.782a8.324 8.324 0 0 1 5.73-2.274A8.33 8.33 0 0 1 29.3 2.385a8.332 8.332 0 0 1 2.5 5.801 8.36 8.36 0 0 1-.533 3.118 8.256 8.256 0 0 1-1.625 2.66 8.385 8.385 0 0 1 .83 4.292 8.318 8.318 0 0 1-.691 2.767 8.313 8.313 0 0 1-1.655 2.447 8.183 8.183 0 0 1-2.788 1.879 8.371 8.371 0 0 1-3.18.621 8.449 8.449 0 0 1-4.379-1.216L4.714 31.641a3.108 3.108 0 0 1-1.441.357zM14.189 1.545a8.275 8.275 0 0 0-5.904 2.466A8.116 8.116 0 0 0 6.49 6.77a8.421 8.421 0 0 0 .726 7.556l.008.013-.007.014-6.64 13.209a3.023 3.023 0 0 0 .562 3.503l.036.035c.565.546 1.31.847 2.098.847.491 0 .981-.121 1.416-.35l13.092-6.901.013.008a8.402 8.402 0 0 0 4.364 1.216 8.308 8.308 0 0 0 3.159-.617 8.141 8.141 0 0 0 2.77-1.867 8.278 8.278 0 0 0 2.331-5.181 8.326 8.326 0 0 0-.833-4.281l-.008-.016.012-.014a8.22 8.22 0 0 0 1.627-2.657c.372-.992.551-2.034.529-3.098s-.241-2.098-.653-3.074a8.244 8.244 0 0 0-1.831-2.69A8.265 8.265 0 0 0 23.452.054a8.271 8.271 0 0 0-5.706 2.271l-.013.013-.017-.008a8.231 8.231 0 0 0-3.527-.784zM3.274 29.703a.77.77 0 0 1-.538-.216l-.012-.012a.78.78 0 0 1-.142-.906l6.222-12.378.026.026 7.069 6.934-12.255 6.46a.798.798 0 0 1-.37.092zm5.545-13.422L2.63 28.593a.724.724 0 0 0 .132.843l.012.011a.72.72 0 0 0 .501.201.74.74 0 0 0 .345-.086l12.19-6.426-6.99-6.856zm13.339 7.394a6.191 6.191 0 0 1-1.823-.274 6.053 6.053 0 0 1-2.363-1.363l-.117-.111-7.864-7.714-.114-.115a6.043 6.043 0 0 1-1.408-2.336c-.722-2.196-.18-4.562 1.413-6.174a6.012 6.012 0 0 1 4.308-1.799v.054a5.961 5.961 0 0 0-4.27 1.783c-1.579 1.598-2.115 3.942-1.4 6.119a5.997 5.997 0 0 0 1.396 2.316l.113.114 7.864 7.714.116.111a5.998 5.998 0 0 0 2.342 1.351c.586.18 1.195.271 1.808.271 1.639 0 3.16-.635 4.283-1.789a5.999 5.999 0 0 0 .603-7.651.84.84 0 0 1 .161-1.139 5.962 5.962 0 0 0 2.244-4.807 5.967 5.967 0 0 0-1.795-4.169 5.97 5.97 0 0 0-4.201-1.715 5.956 5.956 0 0 0-4.286 1.8 6.172 6.172 0 0 0-.471.54.834.834 0 0 1-.666.327.852.852 0 0 1-.48-.148 5.972 5.972 0 0 0-3.36-1.027V3.79a6.03 6.03 0 0 1 3.39 1.036.797.797 0 0 0 .45.139.784.784 0 0 0 .624-.306c.146-.189.306-.373.475-.545a6.01 6.01 0 0 1 4.325-1.816c1.594 0 3.1.614 4.239 1.73 1.136 1.113 1.779 2.607 1.811 4.206a6.019 6.019 0 0 1-2.264 4.85.785.785 0 0 0-.15 1.066 6.055 6.055 0 0 1-.608 7.72c-1.133 1.164-2.668 1.805-4.322 1.805z"/></symbol><symbol id="icon-berry" viewBox="0 0 32 32"><path d="M10.586 26.548c1.027.024 1.897-.448 2.711-1.002a.47.47 0 1 0-.53-.778c-.767.522-1.442.866-2.179.846-.968.027-1.857-.61-2.94-1.39C5 22.171 3.737 19.445 2.773 16.272c-.193-.634-.481-1.694-.455-2.176.063-1.203.779-2.688 1.668-3.387.243.312.596.533.991.685.073.844.319 1.747.882 2.094.566.327 1.224.209 1.793-.038.33-.143.642-.339.928-.56.068.148.141.295.224.435.389.657.963 1.269 1.761 1.269s1.368-.612 1.757-1.269c.096-.161.182-.33.258-.5.312.252.66.476 1.028.633.564.241 1.212.353 1.773.029.69-.398.88-1.213.889-1.976.46-.13.805-.344 1.141-.617.351.327.662.77.908 1.26a5.224 5.224 0 0 0-2.053 1.806c-.402.619-.582 1.528-.71 2.079-.659 2.828-.924 5.615.256 8.494.467 1.035.903 2.117 1.946 2.688 1.017.619 2.172.456 3.302.342 3.082-.418 5.363-2.041 7.483-4.026.413-.387 1.111-.995 1.447-1.653.564-1.107.732-2.577.3-3.769.418-.503.386-1.191.231-1.794-.165-.643-.48-1.25-.889-1.659a2.109 2.109 0 0 0-2.924-.042c-.069.007-.139.011-.207.024a3.24 3.24 0 0 1 1.729-1.575c.308-.122.594-.315.695-.667s-.088-.718-.347-.941c-.269-.232-.602-.377-.954-.446s-.729-.066-1.081.095a4.261 4.261 0 0 0-2.218 2.286 1.958 1.958 0 0 0-.084-.202c.093-.455.086-.917-.079-1.336a1.73 1.73 0 0 0-1.169-1.027c-.558-.15-1.241-.12-1.88.059-.521.146-1.049.404-1.329.869a3.326 3.326 0 0 0-.575.085c-.324-.689-.761-1.322-1.32-1.784.142-.73-.278-1.403-.788-1.924-.534-.546-1.204-.971-1.838-1.141a2.39 2.39 0 0 0-2.907 1.647 2.418 2.418 0 0 0-.328.274 3.888 3.888 0 0 1 .837-2.844c.232-.294.392-.639.296-1.019s-.464-.619-.841-.69a2.096 2.096 0 0 0-.296-.034 2.44 2.44 0 0 0-.891.138c-.386.132-.753.35-1.002.701-.792 1.116-1.111 2.373-.873 3.791a2.365 2.365 0 0 0-.376-.319c-.167-.516-.442-.979-.847-1.301a1.938 1.938 0 0 0-1.717-.343c-.633.17-1.303.595-1.838 1.141-.445.455-.822 1.025-.817 1.649-1.368.849-2.202 2.661-2.286 4.261-.044.835.305 1.863.498 2.498.988 3.252 2.341 6.217 5.208 8.435 1.08.778 2.143 1.599 3.502 1.569zm1.231-21.272c.149-.028.282.016.418.029a.636.636 0 0 1-.107.183 4.866 4.866 0 0 0-1.035 3.441c-.311-.081-.595-.056-.888-.031-.244-1.242-.001-2.206.694-3.185.274-.293.565-.366.919-.437zm2.912 2.582c.096.006.193.021.29.047.388.104.993.464 1.411.891s.603.874.536 1.125c-.18.367-.457.48-.788.63a3.722 3.722 0 0 0-.401-1.15 2.378 2.378 0 0 0-1.448-1.109 2.395 2.395 0 0 0-.643-.072 1.434 1.434 0 0 1 1.045-.363zm-7.901.003a.88.88 0 0 1 .624.215c.052.041.101.093.15.147a2.403 2.403 0 0 0-.688.07 2.372 2.372 0 0 0-1.448 1.109c-.169.292-.295.64-.378 1.011-.26-.135-.418-.296-.47-.491-.067-.251.118-.698.536-1.125s1.023-.787 1.411-.891c.095-.026.183-.04.264-.044zm.6 1.289a1.442 1.442 0 0 1 1.286.62c-.33.409-.536.921-.536 1.483 0 .217.035.446.084.678-.29.265-.644.512-.982.658-.42.182-.764.192-.949.085-.225-.13-.41-.58-.417-1.177s.165-1.279.365-1.627c.251-.435.687-.69 1.149-.721zm6.385 0a1.44 1.44 0 0 1 1.149.721c.201.348.374 1.029.368 1.627s-.193 1.047-.419 1.177c-.183.106-.521.097-.936-.081a3.786 3.786 0 0 1-1.09-.752c.14-.695-.037-1.481-.409-1.996.121-.201.292-.375.512-.502.261-.151.547-.213.824-.194zm-3.248.66c.804 0 1.442.64 1.442 1.443 0 .402-.189 1.08-.493 1.594s-.689.809-.949.809-.649-.295-.953-.809-.493-1.193-.493-1.594c0-.803.642-1.443 1.446-1.443zm11.556 1.877a2.31 2.31 0 0 1 .63.053c.304.081.443.229.535.461a2.1 2.1 0 0 0-2 .05 3.102 3.102 0 0 0-.664.535c-.09-.165-.117-.31-.084-.436.047-.176.35-.42.829-.553.239-.067.507-.102.754-.11zm5.028.232a1.2 1.2 0 0 1 .806.248c-.016.013.009-.004-.073.029a4.224 4.224 0 0 0-2.23 2.053c-.163-.158-.351-.233-.536-.323.345-.975.919-1.549 1.819-1.962a.651.651 0 0 1 .214-.046zm-23.289.359a.47.47 0 0 0-.469.469v1.198a.47.47 0 0 0 .938 0v-1.198a.469.469 0 0 0-.469-.469zm15.951 3.253c.295.511.853.71 1.391.772.284.033.575.026.859-.007-.008.113-.018.225-.017.339.007.664.17 1.387.793 1.747s1.329.137 1.907-.188c.117-.065.227-.14.337-.216.121.297.274.586.466.843.321.428.768.805 1.353.805.703 0 1.196-.52 1.534-1.076.367.101.684.07 1.023.042.233.862.101 2.064-.308 2.866-.175.343-.838 1.007-1.251 1.393-2.06 1.928-4.138 3.392-6.949 3.776-1.133.114-2.044.201-2.722-.216-.7-.379-1.083-1.21-1.55-2.247-1.074-2.628-.846-5.161-.206-7.91.128-.551.374-1.456.584-1.779.535-.824 1.647-1.581 2.561-1.742.059.304.214.586.399.866-.341.603-.564 1.309-.204 1.933zm2.61-2.622a1.153 1.153 0 0 1 1.067 1.014 2.08 2.08 0 0 0-1.013.877c-.09.156-.161.331-.223.514-.31.064-.653.088-.943.054-.376-.043-.608-.178-.683-.307-.091-.158-.053-.544.191-.977s.66-.858.94-1.02a1.17 1.17 0 0 1 .664-.156zm-3.704.72a.468.468 0 0 0-.414.233l-.51.885a.47.47 0 0 0 .814.47l.511-.884a.47.47 0 0 0-.401-.703zm5.497 1.061c.223-.014.453.034.664.156.561.324.75 1.026.426 1.587-.162.28-.588.696-1.021.94s-.818.284-.976.193c-.158-.091-.317-.446-.322-.943s.142-1.073.304-1.353c.202-.35.553-.555.925-.58zm4.752.639c.229.229.52.746.643 1.227s.062.865-.067.994c-.074.074-.21.131-.431.139a2.108 2.108 0 0 1-.272-.023c.104-.324.165-.651.165-.957 0-.578-.236-1.105-.618-1.486-.086-.086-.183-.163-.263-.235a1.17 1.17 0 0 1 .842.341zM7.85 15.27a.47.47 0 0 0-.47.469v1.195a.47.47 0 1 0 .942 0v-1.195a.47.47 0 0 0-.472-.469zm2.664.274a.47.47 0 0 0-.469.469v1.195a.47.47 0 1 0 .939 0v-1.195a.47.47 0 0 0-.47-.469zm16.387 0c.648 0 1.165.516 1.165 1.163 0 .324-.162.895-.415 1.323s-.567.655-.749.655c-.148 0-.378-.131-.602-.43a3.176 3.176 0 0 1-.462-.96c.106-.127.201-.258.279-.393.224-.387.305-.818.268-1.234a1.14 1.14 0 0 1 .516-.125zm-21.444.723a.47.47 0 0 0-.472.47v1.194a.47.47 0 1 0 .942 0v-1.194a.47.47 0 0 0-.47-.47zm7.156.285a.47.47 0 0 0-.472.472v1.195a.47.47 0 0 0 .941 0v-1.195a.47.47 0 0 0-.469-.472zm5.545.701a.472.472 0 0 0-.378.235l-.509.882a.47.47 0 1 0 .814.469l.509-.882a.468.468 0 0 0-.435-.704zm-8.367 1.18a.47.47 0 0 0-.469.472V20.1a.47.47 0 0 0 .938 0v-1.195a.47.47 0 0 0-.469-.472zm-2.739.227a.47.47 0 0 0-.469.469v1.198a.47.47 0 0 0 .938 0v-1.198a.47.47 0 0 0-.469-.469zm13.847.159a.47.47 0 0 0-.417.235l-.51.885a.47.47 0 0 0 .816.47l.51-.884a.469.469 0 0 0-.399-.705zm7.718.525a.47.47 0 0 0-.416.234l-.51.884a.47.47 0 1 0 .816.471l.51-.885a.47.47 0 0 0-.4-.704zm-4.859.335a.469.469 0 0 0-.417.236l-.511.884a.47.47 0 0 0 .815.47l.51-.885a.47.47 0 0 0-.397-.705zm-5.403.021a.47.47 0 0 0-.418.235l-.51.885a.47.47 0 0 0 .816.471l.51-.885a.47.47 0 0 0-.398-.706zm-5.742.613a.47.47 0 0 0-.472.469v1.198a.47.47 0 0 0 .941 0v-1.198a.47.47 0 0 0-.469-.469zm-4.267 1.01a.47.47 0 0 0-.469.47v1.197a.47.47 0 0 0 .941 0v-1.197a.47.47 0 0 0-.472-.47zm17.598.404a.468.468 0 0 0-.415.236l-.509.882a.47.47 0 1 0 .814.469l.509-.882a.47.47 0 0 0-.399-.704zm-15.43.32a.469.469 0 0 0-.469.469v1.198a.47.47 0 0 0 .939 0v-1.198a.47.47 0 0 0-.47-.469zm7.659.691a.469.469 0 0 0-.416.234l-.51.884a.47.47 0 0 0 .814.47l.51-.885a.47.47 0 0 0-.398-.703zm5.574.075a.471.471 0 0 0-.417.235l-.51.885a.47.47 0 0 0 .814.469l.51-.884a.47.47 0 0 0-.397-.705zm-2.541 1.677a.468.468 0 0 0-.414.233l-.51.885a.47.47 0 0 0 .814.469l.51-.884a.47.47 0 0 0-.4-.703z"/></symbol><symbol id="icon-cafe" viewBox="0 0 32 32"><path d="M31.932 10.527 28.925 4.6V2.25a.625.625 0 0 0-.625-.625H3.7a.625.625 0 0 0-.625.625v2.351L.068 10.527A.634.634 0 0 0 0 10.81v1.538a3.705 3.705 0 0 0 3.075 3.646v13.132h-.64a.625.625 0 0 0 0 1.25h27.13a.625.625 0 0 0 0-1.25h-.64V15.994A3.706 3.706 0 0 0 32 12.348V10.81a.621.621 0 0 0-.068-.283zM4.325 2.875h23.35v1.25H4.325v-1.25zm15.372 7.871-.545-5.371h3.765l1.683 5.528v1.445c0 1.351-1.099 2.45-2.45 2.45s-2.45-1.099-2.45-2.45V10.81a.664.664 0 0 0-.003-.063zm-1.247.095v1.506c0 1.351-1.099 2.45-2.45 2.45s-2.45-1.099-2.45-2.45v-1.506l.555-5.466h3.79l.555 5.466zm-5.602-5.466-.545 5.371a.664.664 0 0 0-.003.063v1.538c0 1.351-1.099 2.45-2.45 2.45s-2.45-1.099-2.45-2.45v-1.444l1.683-5.528h3.765zM1.25 12.347v-1.388l2.834-5.584h3.693l-1.599 5.252a.622.622 0 0 0-.027.182v1.538c0 1.351-1.099 2.45-2.45 2.45s-2.45-1.099-2.45-2.45zm23.925 16.778h-3.75V24.75h.625a.625.625 0 0 0 0-1.25h-.625v-4.375h3.75v10zm2.5 0h-1.25V18.5a.625.625 0 0 0-.625-.625H6.2a.625.625 0 0 0-.625.625v8.75c0 .345.28.625.625.625h13.975v1.25H4.325V15.993a3.708 3.708 0 0 0 2.45-1.591c.665.991 1.795 1.645 3.075 1.645s2.41-.654 3.075-1.645c.665.991 1.795 1.645 3.075 1.645s2.41-.654 3.075-1.645c.665.991 1.795 1.645 3.075 1.645s2.41-.654 3.075-1.645a3.708 3.708 0 0 0 2.45 1.591v13.132zm-14.754-10h2.178l-1.188 1.188a.625.625 0 0 0 .884.884l2.072-2.072h3.309v7.5H6.826v-1.404l6.096-6.096zm-6.096 4.328v-4.328h4.328l-4.328 4.328zM30.75 12.347c0 1.351-1.099 2.45-2.45 2.45s-2.45-1.099-2.45-2.45v-1.538a.622.622 0 0 0-.027-.182l-1.599-5.252h3.693l2.834 5.584v1.388z"/><path d="M13.072 22.66a.626.626 0 0 0 .441-.182l.01-.01a.625.625 0 0 0-.881-.887l-.01.01a.625.625 0 0 0 .44 1.068zM.64 29.125H.625a.625.625 0 0 0 0 1.25H.64a.625.625 0 0 0 0-1.25zm30.735 0h-.015a.625.625 0 0 0 0 1.25h.015a.625.625 0 0 0 0-1.25z"/></symbol><symbol id="icon-milk" viewBox="0 0 32 32"><path d="M20.357 20.187c-.684 0-1.232-.165-1.654-.495-.519-.403-.703-.968-.703-1.359h2c0-.113-.022-.186-.067-.217.003.003.331.203 1.491-.086 2.009-.503 3.91-4.896 3.91-6.363 0-.977-.17-1.349-.312-1.491-.12-.119-.319-.181-.68-.175-1.659 0-3.436 1.153-3.454 1.165l-1.109-1.663c.092-.061 2.278-1.501 4.555-1.501h.038c.858 0 1.553.254 2.059.755.81.803.904 2.046.904 2.911 0 2.005-2.161 7.487-5.424 8.302-.581.146-1.097.219-1.552.219z"/><path d="M22 15.334c-1.029-7.381 0-9.332 0-9.999 0 0-.667-.669-5.333-.002-4.62.66-6.667-2-9.333-2S4.667 4.668 4.667 4.668c2 1.999 3.127 2.777 2 10.665C5.334 24.664 10 27.999 10 27.999c.719.771 1.333.667 1.333.667h6s.521.104 1.333-.667c0 0 4.639-3.307 3.333-12.666z"/><path d="M10.499 26.669h7.67c.879-.847 3.504-4.027 2.511-11.151a49.136 49.136 0 0 1-.417-4.185H8.418c-.055 1.157-.194 2.527-.431 4.189-1.013 7.091 1.616 10.285 2.513 11.147z"/></symbol><symbol id="icon-snowflake" viewBox="0 0 32 32"><path d="M28 14.667h-.8l.4-.4c.533-.533.533-1.333 0-1.867s-1.333-.533-1.867 0l-2.267 2.267h-4.267l3.867-3.867h3.2c.8 0 1.333-.533 1.333-1.333s-.533-1.333-1.333-1.333h-.533l.4-.4c.533-.533.533-1.333 0-1.867s-1.333-.533-1.867 0l-.4.4V5.6c0-.8-.533-1.333-1.333-1.333S21.2 4.8 21.2 5.6v3.2l-3.867 4V8.533L19.6 6.266c.533-.533.533-1.333 0-1.867s-1.333-.533-1.867 0l-.4.4v-.8c0-.8-.533-1.333-1.333-1.333s-1.333.533-1.333 1.333v.8l-.4-.4c-.533-.533-1.333-.533-1.867 0s-.533 1.333 0 1.867l2.267 2.267V12.8l-3.867-4V5.6c0-.8-.533-1.333-1.333-1.333S8.134 4.8 8.134 5.6v.533l-.533-.4c-.533-.533-1.333-.533-1.867 0s-.533 1.333 0 1.867l.4.4h-.533c-.8 0-1.333.533-1.333 1.333s.533 1.333 1.333 1.333h3.2l4 4H8.534l-2.267-2.267c-.533-.533-1.333-.533-1.867 0s-.533 1.333 0 1.867l.533.533c-.533.133-.933.667-.933 1.2s.4 1.067.933 1.2l-.533.533a1.29 1.29 0 0 0 0 1.867c.267.267.533.4.933.4s.667-.133.933-.4l2.267-2.267H12.8l-3.867 3.867H5.6c-.8 0-1.333.533-1.333 1.333S4.8 23.865 5.6 23.865h.533l-.4.4a1.29 1.29 0 0 0 0 1.867c.267.4.533.533.933.533s.667-.133.933-.4l.4-.4v.533c0 .8.533 1.333 1.333 1.333s1.333-.533 1.333-1.333v-3.2l3.867-3.867v5.6l-2.267 2.267c-.533.533-.533 1.333 0 1.867s1.333.533 1.867 0l.533-.533c.133.533.667.933 1.2.933s1.067-.4 1.2-.933l.533.533c.267.267.667.4.933.4s.667-.133.933-.4a1.29 1.29 0 0 0 0-1.867l-2.133-2.4v-5.6l3.867 3.867v3.2c0 .8.533 1.333 1.333 1.333s1.333-.533 1.333-1.333v-.533l.4.4c.267.267.667.4.933.4s.667-.133.933-.4a1.29 1.29 0 0 0 0-1.867l-.4-.4h.533c.8 0 1.333-.533 1.333-1.333s-.533-1.333-1.333-1.333h-3.2l-3.867-3.867h4.267l2.267 2.267c.267.267.667.4.933.4s.667-.133.933-.4a1.29 1.29 0 0 0 0-1.867l-.4-.4h.8c.8 0 1.333-.533 1.333-1.333s-.533-1.333-1.333-1.333z"/></symbol><symbol id="icon-youtube" viewBox="0 0 32 32"><path d="M31.681 9.6s-.313-2.206-1.275-3.175C29.187 5.15 27.825 5.144 27.2 5.069c-4.475-.325-11.194-.325-11.194-.325h-.012s-6.719 0-11.194.325c-.625.075-1.987.081-3.206 1.356C.631 7.394.325 9.6.325 9.6s-.319 2.588-.319 5.181v2.425c0 2.587.319 5.181.319 5.181s.313 2.206 1.269 3.175c1.219 1.275 2.819 1.231 3.531 1.369 2.563.244 10.881.319 10.881.319s6.725-.012 11.2-.331c.625-.075 1.988-.081 3.206-1.356.962-.969 1.275-3.175 1.275-3.175s.319-2.587.319-5.181v-2.425c-.006-2.588-.325-5.181-.325-5.181zM12.694 20.15v-8.994l8.644 4.513-8.644 4.481z"/></symbol><symbol id="icon-like" viewBox="0 0 32 32"><path d="M28 16.2c0-1.6-1.25-2.45-3-2.45h-5.05c.35-1.35.55-2.65.55-3.75 0-4.35-1.2-5.25-2.25-5.25-.7 0-1.2.05-1.9.5-.2.1-.3.3-.35.5l-.75 4.05c-.8 2.15-2.85 4-4.5 5.25v10.7c.55 0 1.25.3 1.9.65.8.4 1.65.8 2.6.8h7.15c1.5 0 2.6-1.2 2.6-2.25 0-.2 0-.4-.05-.55.95-.35 1.55-1.15 1.55-2.05 0-.45-.1-.85-.25-1.15.55-.4 1.15-1.05 1.15-1.85 0-.4-.2-.9-.5-1.25.65-.5 1.1-1.2 1.1-1.9zm-1.55 0c0 .95-1 1.05-1.15 1.5-.15.5.6.7.6 1.6 0 .95-1.15.95-1.3 1.4-.2.55.35.75.35 1.65v.15c-.15.75-1.3.8-1.5 1.1-.2.35.05.55.05 1.35 0 .45-.5.75-1.1.75h-7.15c-.55 0-1.25-.3-1.9-.65-.6-.3-1.2-.6-1.85-.75v-7.95c1.85-1.4 4.25-3.55 5.2-6.15 0-.05 0-.1.05-.1l.7-3.75c.25-.1.45-.1.85-.1.15 0 .75.9.75 3.75 0 1.1-.2 2.35-.6 3.75h-.2c-.4 0-.75.35-.75.75s.35.75.75.75H25c.75 0 1.45.35 1.45.95z"/><path d="M10 27.25H5.5c-.85 0-1.5-.65-1.5-1.5v-10.5c0-.85.65-1.5 1.5-1.5H10c.85 0 1.5.65 1.5 1.5v10.5c0 .85-.65 1.5-1.5 1.5zm-4.5-12v10.5H10v-10.5H5.5z"/></symbol></defs></svg>