<svg aria-hidden="true" style="width:0;height:0;position:absolute;overflow:hidden" xmlns="http://www.w3.org/2000/svg"><defs><symbol id="icon-btn-arrow" viewBox="0 0 32 32"><path stroke-linejoin="round" stroke-linecap="round" stroke-width="6.4" d="M8.121 3.2 23.095 16 8.121 28.8"/></symbol><symbol id="icon-burger" viewBox="0 0 48 32"><path d="M0 5.34V0h48v5.34H0zm0 13.32h48v-5.32H0v5.32zM0 32h48v-5.34H0V32z"/></symbol><symbol id="icon-cross" viewBox="0 0 32 32"><path d="M32 3.223 28.777 0 16 12.777 3.223 0 0 3.223 12.777 16 0 28.777 3.223 32 16 19.223 28.777 32 32 28.777 19.223 16 32 3.223z"/></symbol><symbol id="icon-facebook" viewBox="0 0 16 32"><path fill="#fff" style="fill:var(--color2,#fff)" d="M14.143 15.972h-4.034v14.865H3.997V15.972H1.09v-5.224h2.907V7.367c0-2.418 1.142-6.203 6.166-6.203l4.527.019v5.071h-3.285c-.539 0-1.296.271-1.296 1.424v3.075h4.567l-.534 5.219z"/></symbol><symbol id="icon-github" viewBox="0 0 32 32"><path fill="#fff" style="fill:var(--color2,#fff)" d="M16 0C7.212 0 0 7.212 0 16c0 7.499 5.262 14.312 12.25 16v-5.293c-.692.152-1.33.156-2.034-.052-.946-.279-1.714-.909-2.284-1.869-.364-.613-1.008-1.278-1.68-1.23l-.165-1.868c1.453-.124 2.711.886 3.457 2.14.332.558.713.884 1.203 1.029.473.14.982.072 1.574-.137.149-1.186.692-1.63 1.102-2.255v-.001c-4.167-.622-5.828-2.832-6.488-4.578-.874-2.317-.405-5.212 1.14-7.041.03-.036.084-.129.063-.194-.708-2.139.155-3.909.187-4.097.817.242.95-.243 3.551 1.337l.449.27c.188.112.129.048.317.034A13.544 13.544 0 0 1 16 7.723c1.136.015 2.273.178 3.404.484l.145.015c-.013-.002.04-.009.127-.062 3.248-1.968 3.132-1.324 4.003-1.608.032.188.883 1.987.182 4.099-.095.291 2.816 2.956 1.203 7.235-.659 1.746-2.32 3.957-6.487 4.578v.001c.534.814 1.176 1.247 1.173 2.927V32C26.738 30.312 32 23.499 32 16c0-8.788-7.212-16-16-16z"/></symbol><symbol id="icon-house" viewBox="0 0 32 32"><path fill="#d31342" style="fill:var(--color3,#d31342)" d="M31.599 16.766c.58-.595.524-1.507-.125-2.037L17.173 3.056c-.649-.53-1.69-.518-2.325.025L.498 15.351c-.635.543-.667 1.454-.069 2.034l.36.35c.597.579 1.562.648 2.154.154l1.072-.896v13.116c0 .805.699 1.456 1.561 1.456h5.594c.862 0 1.561-.651 1.561-1.456v-9.176h7.135v9.176c-.012.804.604 1.455 1.466 1.455h5.928c.862 0 1.561-.651 1.561-1.456v-12.93l.662.542c.366.3 1.131.059 1.711-.536l.407-.417z"/></symbol><symbol id="icon-telegram" viewBox="0 0 32 32"><path fill="#fff" style="fill:var(--color2,#fff)" d="m12.613 19.671-.491 6.444c.702 0 1.006-.282 1.371-.62l3.293-2.937 6.822 4.663c1.251.651 2.133.308 2.47-1.074l4.479-19.586c.397-1.726-.669-2.401-1.888-1.978L2.346 13.989c-1.796.651-1.769 1.585-.305 2.009l6.73 1.954 15.632-9.129c.736-.455 1.405-.203.854.252L12.612 19.672z"/></symbol><symbol id="icon-arrow-right" viewBox="0 0 32 32"><path d="m19.414 27.414 10-10a2 2 0 0 0 0-2.828l-10-10a2 2 0 1 0-2.828 2.828L23.172 14H4a2 2 0 1 0 0 4h19.172l-6.586 6.586c-.39.39-.586.902-.586 1.414s.195 1.024.586 1.414a2 2 0 0 0 2.828 0z"/></symbol><symbol id="icon-icecream1" viewBox="0 0 32 32"><path d="M8.225 9.526 16 32l7.775-22.474zM13.027 3.678A4.814 4.814 0 0 0 8.225 8.48h9.604a4.801 4.801 0 0 0-4.802-4.802zM16 3.149c.889-.51 2.143-.98 4.194-.634A4.812 4.812 0 0 0 15.98 0a4.724 4.724 0 0 0-4.214 2.541c1.757-.431 3.345.124 4.234.608zM17.196 4.038c1.196 1.117 1.953 2.692 1.953 4.443h4.626c0-2.639-2.548-5.828-6.579-4.443z"/></symbol><symbol id="icon-icecream2" viewBox="0 0 32 32"><path d="M31.117 5.104a8.267 8.267 0 0 0-1.837-2.699A8.305 8.305 0 0 0 23.452.026c-1.094 0-2.161.21-3.169.625a8.274 8.274 0 0 0-2.555 1.654 8.302 8.302 0 0 0-3.539-.787 8.29 8.29 0 0 0-3.155.619A8.286 8.286 0 0 0 6.465 6.76a8.357 8.357 0 0 0-.577 3.13 8.431 8.431 0 0 0 1.305 4.451L.553 27.55a3.045 3.045 0 0 0-.291 1.841c.099.647.396 1.232.859 1.693l.003.003a3.03 3.03 0 0 0 2.149.886c.496 0 .99-.122 1.429-.354l13.078-6.894a8.44 8.44 0 0 0 4.378 1.22 8.337 8.337 0 0 0 3.169-.619 8.28 8.28 0 0 0 4.429-4.312 8.287 8.287 0 0 0 .688-2.758 8.362 8.362 0 0 0-.835-4.294 8.235 8.235 0 0 0 1.632-2.665c.374-.995.552-2.041.531-3.108s-.242-2.105-.655-3.084zm-8.959 18.544a6.174 6.174 0 0 1-1.816-.273 6.064 6.064 0 0 1-2.469-1.468l-7.864-7.714-.113-.114a6.053 6.053 0 0 1-1.402-2.326c-.687-2.09-.231-4.49 1.406-6.146a6.01 6.01 0 0 1 4.289-1.791c1.179 0 2.358.344 3.375 1.032a.829.829 0 0 0 .465.143.813.813 0 0 0 .645-.316 6.013 6.013 0 0 1 4.779-2.351 6.01 6.01 0 0 1 4.22 1.723c2.338 2.29 2.414 6.062.169 8.444a6.035 6.035 0 0 1-.619.572.81.81 0 0 0-.155 1.103 6.033 6.033 0 0 1-.606 7.686 5.98 5.98 0 0 1-4.302 1.797zM3.631 29.587a.774.774 0 0 1-.358.089.746.746 0 0 1-.519-.208l-.012-.012a.756.756 0 0 1-.137-.875l6.206-12.345 7.043 6.908-12.223 6.443z"/><path d="M3.274 32c-.802 0-1.56-.306-2.135-.862l-.033-.033a3.074 3.074 0 0 1-.576-3.568l6.633-13.195A8.449 8.449 0 0 1 5.862 9.89a8.374 8.374 0 0 1 .579-3.14 8.173 8.173 0 0 1 1.807-2.777 8.32 8.32 0 0 1 5.942-2.482c1.236 0 2.425.263 3.534.782a8.324 8.324 0 0 1 5.73-2.274A8.33 8.33 0 0 1 29.3 2.385a8.332 8.332 0 0 1 2.5 5.801 8.36 8.36 0 0 1-.533 3.118 8.256 8.256 0 0 1-1.625 2.66 8.385 8.385 0 0 1 .83 4.292 8.318 8.318 0 0 1-.691 2.767 8.313 8.313 0 0 1-1.655 2.447 8.183 8.183 0 0 1-2.788 1.879 8.371 8.371 0 0 1-3.18.621 8.449 8.449 0 0 1-4.379-1.216L4.714 31.641a3.108 3.108 0 0 1-1.441.357zM14.189 1.545a8.275 8.275 0 0 0-5.904 2.466A8.116 8.116 0 0 0 6.49 6.77a8.421 8.421 0 0 0 .726 7.556l.008.013-.007.014-6.64 13.209a3.023 3.023 0 0 0 .562 3.503l.036.035c.565.546 1.31.847 2.098.847.491 0 .981-.121 1.416-.35l13.092-6.901.013.008a8.402 8.402 0 0 0 4.364 1.216 8.308 8.308 0 0 0 3.159-.617 8.141 8.141 0 0 0 2.77-1.867 8.278 8.278 0 0 0 2.331-5.181 8.326 8.326 0 0 0-.833-4.281l-.008-.016.012-.014a8.22 8.22 0 0 0 1.627-2.657c.372-.992.551-2.034.529-3.098s-.241-2.098-.653-3.074a8.244 8.244 0 0 0-1.831-2.69A8.265 8.265 0 0 0 23.452.054a8.271 8.271 0 0 0-5.706 2.271l-.013.013-.017-.008a8.231 8.231 0 0 0-3.527-.784zM3.274 29.703a.77.77 0 0 1-.538-.216l-.012-.012a.78.78 0 0 1-.142-.906l6.222-12.378.026.026 7.069 6.934-12.255 6.46a.798.798 0 0 1-.37.092zm5.545-13.422L2.63 28.593a.724.724 0 0 0 .132.843l.012.011a.72.72 0 0 0 .501.201.74.74 0 0 0 .345-.086l12.19-6.426-6.99-6.856zm13.339 7.394a6.191 6.191 0 0 1-1.823-.274 6.053 6.053 0 0 1-2.363-1.363l-.117-.111-7.864-7.714-.114-.115a6.043 6.043 0 0 1-1.408-2.336c-.722-2.196-.18-4.562 1.413-6.174a6.012 6.012 0 0 1 4.308-1.799v.054a5.961 5.961 0 0 0-4.27 1.783c-1.579 1.598-2.115 3.942-1.4 6.119a5.997 5.997 0 0 0 1.396 2.316l.113.114 7.864 7.714.116.111a5.998 5.998 0 0 0 2.342 1.351c.586.18 1.195.271 1.808.271 1.639 0 3.16-.635 4.283-1.789a5.999 5.999 0 0 0 .603-7.651.84.84 0 0 1 .161-1.139 5.962 5.962 0 0 0 2.244-4.807 5.967 5.967 0 0 0-1.795-4.169 5.97 5.97 0 0 0-4.201-1.715 5.956 5.956 0 0 0-4.286 1.8 6.172 6.172 0 0 0-.471.54.834.834 0 0 1-.666.327.852.852 0 0 1-.48-.148 5.972 5.972 0 0 0-3.36-1.027V3.79a6.03 6.03 0 0 1 3.39 1.036.797.797 0 0 0 .45.139.784.784 0 0 0 .624-.306c.146-.189.306-.373.475-.545a6.01 6.01 0 0 1 4.325-1.816c1.594 0 3.1.614 4.239 1.73 1.136 1.113 1.779 2.607 1.811 4.206a6.019 6.019 0 0 1-2.264 4.85.785.785 0 0 0-.15 1.066 6.055 6.055 0 0 1-.608 7.72c-1.133 1.164-2.668 1.805-4.322 1.805z"/></symbol></defs></svg>