<svg aria-hidden="true" style="position:absolute;width:0;height:0;overflow:hidden" xmlns="http://www.w3.org/2000/svg"><defs>

<symbol id="icon-btn-arrow" viewBox="0 0 32 32"><path stroke-linejoin="round" stroke-linecap="round" stroke-width="6.4" d="M8.121 3.2 23.095 16 8.121 28.8"/></symbol>

<symbol id="icon-burger" viewBox="0 0 48 32"><path d="M0 5.34v-5.34h48v5.34h-48zM0 18.66h48v-5.32h-48v5.32zM0 32h48v-5.34h-48v5.34z"></path></symbol>

<symbol id="icon-cross" viewBox="0 0 32 32"><path d="M32 3.223 28.777 0 16 12.777 3.223 0 0 3.223 12.777 16 0 28.777 3.223 32 16 19.223 28.777 32 32 28.777 19.223 16 32 3.223z"/></symbol>

<symbol id="icon-facebook" viewBox="0 0 16 32"><path fill="#fff" style="fill:var(--color2, #fff)" d="M14.143 15.972h-4.034v14.865H3.997V15.972H1.09v-5.224h2.907V7.367c0-2.418 1.142-6.203 6.166-6.203l4.527.019v5.071h-3.285c-.539 0-1.296.271-1.296 1.424v3.075h4.567l-.534 5.219z"/></symbol>

<symbol id="icon-github" viewBox="0 0 32 32"><path fill="#fff" style="fill:var(--color2, #fff)" d="M16 0C7.212 0 0 7.212 0 16c0 7.499 5.262 14.312 12.25 16v-5.293c-.692.152-1.33.156-2.034-.052-.946-.279-1.714-.909-2.284-1.869-.364-.613-1.008-1.278-1.68-1.23l-.165-1.868c1.453-.124 2.711.886 3.457 2.14.332.558.713.884 1.203 1.029.473.14.982.072 1.574-.137.149-1.186.692-1.63 1.102-2.255v-.001c-4.167-.622-5.828-2.832-6.488-4.578-.874-2.317-.405-5.212 1.14-7.041.03-.036.084-.129.063-.194-.708-2.139.155-3.909.187-4.097.817.242.95-.243 3.551 1.337l.449.27c.188.112.129.048.317.034A13.544 13.544 0 0 1 16 7.723c1.136.015 2.273.178 3.404.484l.145.015c-.013-.002.04-.009.127-.062 3.248-1.968 3.132-1.324 4.003-1.608.032.188.883 1.987.182 4.099-.095.291 2.816 2.956 1.203 7.235-.659 1.746-2.32 3.957-6.487 4.578v.001c.534.814 1.176 1.247 1.173 2.927V32C26.738 30.312 32 23.499 32 16c0-8.788-7.212-16-16-16z"/></symbol>

<symbol id="icon-house" viewBox="0 0 32 32"><path fill="#d31342" style="fill:var(--color3, #d31342)" d="M31.599 16.766c.58-.595.524-1.507-.125-2.037L17.173 3.056c-.649-.53-1.69-.518-2.325.025L.498 15.351c-.635.543-.667 1.454-.069 2.034l.36.35c.597.579 1.562.648 2.154.154l1.072-.896v13.116c0 .805.699 1.456 1.561 1.456h5.594c.862 0 1.561-.651 1.561-1.456v-9.176h7.135v9.176c-.012.804.604 1.455 1.466 1.455h5.928c.862 0 1.561-.651 1.561-1.456v-12.93l.662.542c.366.3 1.131.059 1.711-.536l.407-.417z"/></symbol>

<symbol id="icon-telegram" viewBox="0 0 32 32"><path fill="#fff" style="fill:var(--color2, #fff)" d="m12.613 19.671-.491 6.444c.702 0 1.006-.282 1.371-.62l3.293-2.937 6.822 4.663c1.251.651 2.133.308 2.47-1.074l4.479-19.586c.397-1.726-.669-2.401-1.888-1.978L2.346 13.989c-1.796.651-1.769 1.585-.305 2.009l6.73 1.954 15.632-9.129c.736-.455 1.405-.203.854.252L12.612 19.672z"/></symbol>

<symbol id="icon-arrow-right" viewBox="0 0 32 32"><path d="m19.414 27.414 10-10a2 2 0 0 0 0-2.828l-10-10a2 2 0 1 0-2.828 2.828L23.172 14H4a2 2 0 1 0 0 4h19.172l-6.586 6.586c-.39.39-.586.902-.586 1.414s.195 1.024.586 1.414a2 2 0 0 0 2.828 0z"/></symbol>

<symbol id="icon-icecream1" viewBox="0 0 32 32">
<path d="M8.225 9.526l7.775 22.474 7.775-22.474z"></path>
<path d="M13.027 3.678c-2.639 0-4.802 2.156-4.802 4.802h9.604c0-2.639-2.136-4.802-4.802-4.802z"></path>
<path d="M16 3.149c0.889-0.51 2.143-0.98 4.194-0.634-0.81-1.496-2.411-2.515-4.214-2.515-1.829 0-3.43 1.019-4.214 2.541 1.757-0.431 3.345 0.124 4.234 0.608z"></path>
<path d="M17.196 4.038c1.196 1.117 1.953 2.692 1.953 4.443v0h4.626c0-2.639-2.548-5.828-6.579-4.443z"></path>
</symbol>

<symbol id="icon-icecream2" viewBox="0 0 32 32">
<path d="M31.117 5.104c-0.429-1.016-1.047-1.924-1.837-2.699-0.791-0.775-1.711-1.376-2.734-1.785-0.987-0.394-2.027-0.594-3.094-0.594-1.094 0-2.161 0.21-3.169 0.625-0.95 0.391-1.808 0.946-2.555 1.654-1.1-0.517-2.303-0.787-3.539-0.787-1.089-0-2.151 0.208-3.155 0.619-1.041 0.426-1.972 1.050-2.768 1.855-0.786 0.796-1.392 1.727-1.801 2.768-0.391 0.996-0.585 2.049-0.577 3.13 0.009 1.095 0.224 2.161 0.641 3.169 0.186 0.449 0.407 0.877 0.664 1.282l-6.64 13.209c-0.288 0.572-0.388 1.209-0.291 1.841 0.099 0.647 0.396 1.232 0.859 1.693l0.003 0.003c0.011 0.011 0.022 0.022 0.033 0.032 0.57 0.551 1.322 0.854 2.116 0.854 0.496 0 0.99-0.122 1.429-0.354l13.078-6.894c0.396 0.24 0.812 0.448 1.248 0.621 0.999 0.397 2.052 0.599 3.13 0.599 1.097 0 2.163-0.208 3.169-0.619 1.052-0.429 1.987-1.059 2.779-1.873 0.695-0.713 1.25-1.534 1.65-2.439 0.387-0.874 0.618-1.802 0.688-2.758 0.109-1.486-0.185-2.972-0.835-4.294 0.712-0.781 1.261-1.677 1.632-2.665 0.374-0.995 0.552-2.041 0.531-3.108s-0.242-2.105-0.655-3.084zM22.158 23.648c-0.612 0-1.225-0.091-1.816-0.273-0.855-0.263-1.663-0.715-2.353-1.357-0.039-0.036-0.078-0.073-0.116-0.111l-7.864-7.714c-0.038-0.038-0.076-0.076-0.113-0.114-0.655-0.677-1.123-1.476-1.402-2.326-0.687-2.090-0.231-4.49 1.406-6.146 1.179-1.193 2.733-1.791 4.289-1.791 1.179 0 2.358 0.344 3.375 1.032 0.142 0.096 0.304 0.143 0.465 0.143 0.244 0 0.485-0.109 0.645-0.316 0.145-0.188 0.302-0.369 0.473-0.543 1.181-1.204 2.743-1.808 4.306-1.808 1.523 0 3.046 0.573 4.22 1.723 2.338 2.29 2.414 6.062 0.169 8.444-0.196 0.208-0.403 0.399-0.619 0.572-0.336 0.27-0.405 0.751-0.155 1.103 1.648 2.329 1.453 5.571-0.606 7.686-1.169 1.2-2.733 1.797-4.302 1.797zM3.631 29.587c-0.113 0.059-0.236 0.089-0.358 0.089-0.19 0-0.377-0.071-0.519-0.208-0.004-0.004-0.008-0.008-0.012-0.012-0.231-0.23-0.283-0.584-0.137-0.875l6.206-12.345 7.043 6.908-12.223 6.443z"></path>
<path d="M3.274 32c-0.802 0-1.56-0.306-2.135-0.862-0.011-0.011-0.022-0.022-0.033-0.033-0.47-0.468-0.77-1.059-0.87-1.711-0.098-0.638 0.004-1.28 0.294-1.857l6.633-13.195c-0.254-0.402-0.475-0.831-0.658-1.273-0.418-1.012-0.635-2.081-0.643-3.179-0.008-1.084 0.186-2.14 0.579-3.14 0.41-1.045 1.018-1.979 1.807-2.777 0.798-0.807 1.732-1.433 2.777-1.861 1.008-0.412 2.073-0.621 3.165-0.621 1.236 0 2.425 0.263 3.534 0.782 0.745-0.704 1.603-1.258 2.55-1.647 1.012-0.416 2.082-0.627 3.18-0.627 1.070 0 2.114 0.201 3.103 0.596 1.026 0.41 1.949 1.012 2.743 1.79 0.793 0.777 1.413 1.687 1.843 2.707 0.415 0.982 0.636 2.023 0.657 3.094s-0.158 2.12-0.533 3.118c-0.37 0.986-0.917 1.88-1.625 2.66 0.651 1.331 0.938 2.814 0.83 4.292-0.070 0.959-0.303 1.89-0.691 2.767-0.401 0.908-0.958 1.731-1.655 2.447-0.795 0.816-1.733 1.449-2.788 1.879-1.009 0.412-2.079 0.621-3.18 0.621-1.082 0-2.138-0.202-3.14-0.601-0.428-0.17-0.845-0.377-1.239-0.615l-13.065 6.887c-0.443 0.233-0.941 0.357-1.441 0.357zM14.189 1.545c-1.086 0-2.144 0.208-3.145 0.617-1.038 0.424-1.966 1.046-2.759 1.849-0.784 0.793-1.388 1.721-1.795 2.759-0.39 0.993-0.583 2.043-0.575 3.12 0.009 1.091 0.224 2.154 0.639 3.159 0.184 0.444 0.406 0.874 0.662 1.277l0.008 0.013-0.007 0.014-6.64 13.209c-0.285 0.567-0.385 1.198-0.289 1.825 0.099 0.641 0.393 1.222 0.851 1.678 0.014 0.014 0.025 0.025 0.036 0.035 0.565 0.546 1.31 0.847 2.098 0.847 0.491 0 0.981-0.121 1.416-0.35l13.092-6.901 0.013 0.008c0.395 0.24 0.814 0.448 1.244 0.619 0.995 0.396 2.045 0.597 3.12 0.597 1.093 0 2.156-0.207 3.159-0.617 1.048-0.428 1.98-1.056 2.77-1.867 0.692-0.711 1.246-1.529 1.645-2.431 0.385-0.871 0.616-1.796 0.686-2.75 0.108-1.474-0.18-2.954-0.833-4.281l-0.008-0.016 0.012-0.014c0.709-0.778 1.257-1.672 1.627-2.657 0.372-0.992 0.551-2.034 0.529-3.098s-0.241-2.098-0.653-3.074c-0.428-1.013-1.044-1.918-1.831-2.69-0.789-0.773-1.706-1.371-2.725-1.779-0.983-0.393-2.021-0.592-3.084-0.592-1.091 0-2.154 0.21-3.159 0.623-0.946 0.389-1.803 0.943-2.547 1.648l-0.013 0.013-0.017-0.008c-1.107-0.52-2.293-0.784-3.527-0.784zM3.274 29.703c-0.203 0-0.394-0.077-0.538-0.216l-0.012-0.012c-0.238-0.237-0.295-0.601-0.142-0.906l6.222-12.378 0.026 0.026 7.069 6.934-12.255 6.46c-0.114 0.060-0.242 0.092-0.37 0.092zM8.819 16.281l-6.189 12.312c-0.143 0.284-0.090 0.623 0.132 0.843l0.012 0.011c0.134 0.129 0.312 0.201 0.501 0.201 0.12 0 0.239-0.030 0.345-0.086l12.19-6.426-6.99-6.856zM22.158 23.675c-0.618 0-1.232-0.092-1.823-0.274-0.89-0.274-1.685-0.732-2.363-1.363-0.039-0.037-0.078-0.074-0.117-0.111l-7.864-7.714c-0.039-0.038-0.076-0.076-0.114-0.115-0.644-0.666-1.118-1.452-1.408-2.336-0.722-2.196-0.18-4.562 1.413-6.174 1.146-1.16 2.676-1.799 4.308-1.799v0.054c-1.617 0-3.133 0.633-4.27 1.783-1.579 1.598-2.115 3.942-1.4 6.119 0.288 0.877 0.758 1.656 1.396 2.316 0.037 0.038 0.075 0.076 0.113 0.114l7.864 7.714c0.038 0.037 0.077 0.074 0.116 0.111 0.672 0.625 1.46 1.080 2.342 1.351 0.586 0.18 1.195 0.271 1.808 0.271 1.639 0 3.16-0.635 4.283-1.789 2.020-2.074 2.273-5.292 0.603-7.651-0.256-0.361-0.185-0.862 0.161-1.139 0.217-0.174 0.425-0.366 0.617-0.57 1.081-1.146 1.659-2.651 1.627-4.237s-0.669-3.066-1.795-4.169c-1.129-1.106-2.621-1.715-4.201-1.715-1.626 0-3.148 0.639-4.286 1.8-0.167 0.171-0.326 0.352-0.471 0.54-0.16 0.208-0.403 0.327-0.666 0.327-0.171 0-0.337-0.051-0.48-0.148-0.993-0.672-2.155-1.027-3.36-1.027l-0-0.027 0-0.027c1.216 0 2.389 0.359 3.39 1.036 0.134 0.091 0.289 0.139 0.45 0.139 0.246 0 0.474-0.112 0.624-0.306 0.146-0.189 0.306-0.373 0.475-0.545 1.148-1.171 2.684-1.816 4.325-1.816 1.594 0 3.1 0.614 4.239 1.73 1.136 1.113 1.779 2.607 1.811 4.206s-0.551 3.118-1.642 4.275c-0.194 0.206-0.403 0.399-0.622 0.575-0.324 0.26-0.39 0.728-0.15 1.066 1.685 2.38 1.429 5.627-0.608 7.72-1.133 1.164-2.668 1.805-4.322 1.805z"></path>
</symbol>

</defs></svg>