<svg aria-hidden="true" style="position:absolute;width:0;height:0;overflow:hidden" xmlns="http://www.w3.org/2000/svg"><defs>

<symbol id="icon-btn-arrow" viewBox="0 0 32 32"><path stroke-linejoin="round" stroke-linecap="round" stroke-width="6.4" d="M8.121 3.2 23.095 16 8.121 28.8"/></symbol>

<symbol id="icon-burger" viewBox="0 0 48 32"><path d="M0 5.34v-5.34h48v5.34h-48zM0 18.66h48v-5.32h-48v5.32zM0 32h48v-5.34h-48v5.34z"></path></symbol>

<symbol id="icon-cross" viewBox="0 0 32 32"><path d="M32 3.223 28.777 0 16 12.777 3.223 0 0 3.223 12.777 16 0 28.777 3.223 32 16 19.223 28.777 32 32 28.777 19.223 16 32 3.223z"/></symbol>

<symbol id="icon-facebook" viewBox="0 0 16 32"><path fill="#fff" style="fill:var(--color2, #fff)" d="M14.143 15.972h-4.034v14.865H3.997V15.972H1.09v-5.224h2.907V7.367c0-2.418 1.142-6.203 6.166-6.203l4.527.019v5.071h-3.285c-.539 0-1.296.271-1.296 1.424v3.075h4.567l-.534 5.219z"/></symbol>

<symbol id="icon-github" viewBox="0 0 32 32"><path fill="#fff" style="fill:var(--color2, #fff)" d="M16 0C7.212 0 0 7.212 0 16c0 7.499 5.262 14.312 12.25 16v-5.293c-.692.152-1.33.156-2.034-.052-.946-.279-1.714-.909-2.284-1.869-.364-.613-1.008-1.278-1.68-1.23l-.165-1.868c1.453-.124 2.711.886 3.457 2.14.332.558.713.884 1.203 1.029.473.14.982.072 1.574-.137.149-1.186.692-1.63 1.102-2.255v-.001c-4.167-.622-5.828-2.832-6.488-4.578-.874-2.317-.405-5.212 1.14-7.041.03-.036.084-.129.063-.194-.708-2.139.155-3.909.187-4.097.817.242.95-.243 3.551 1.337l.449.27c.188.112.129.048.317.034A13.544 13.544 0 0 1 16 7.723c1.136.015 2.273.178 3.404.484l.145.015c-.013-.002.04-.009.127-.062 3.248-1.968 3.132-1.324 4.003-1.608.032.188.883 1.987.182 4.099-.095.291 2.816 2.956 1.203 7.235-.659 1.746-2.32 3.957-6.487 4.578v.001c.534.814 1.176 1.247 1.173 2.927V32C26.738 30.312 32 23.499 32 16c0-8.788-7.212-16-16-16z"/></symbol>

<symbol id="icon-house" viewBox="0 0 32 32"><path fill="#d31342" style="fill:var(--color3, #d31342)" d="M31.599 16.766c.58-.595.524-1.507-.125-2.037L17.173 3.056c-.649-.53-1.69-.518-2.325.025L.498 15.351c-.635.543-.667 1.454-.069 2.034l.36.35c.597.579 1.562.648 2.154.154l1.072-.896v13.116c0 .805.699 1.456 1.561 1.456h5.594c.862 0 1.561-.651 1.561-1.456v-9.176h7.135v9.176c-.012.804.604 1.455 1.466 1.455h5.928c.862 0 1.561-.651 1.561-1.456v-12.93l.662.542c.366.3 1.131.059 1.711-.536l.407-.417z"/></symbol>

<symbol id="icon-telegram" viewBox="0 0 32 32"><path fill="#fff" style="fill:var(--color2, #fff)" d="m12.613 19.671-.491 6.444c.702 0 1.006-.282 1.371-.62l3.293-2.937 6.822 4.663c1.251.651 2.133.308 2.47-1.074l4.479-19.586c.397-1.726-.669-2.401-1.888-1.978L2.346 13.989c-1.796.651-1.769 1.585-.305 2.009l6.73 1.954 15.632-9.129c.736-.455 1.405-.203.854.252L12.612 19.672z"/></symbol>

<symbol id="icon-arrow-right" viewBox="0 0 32 32"><path d="m19.414 27.414 10-10a2 2 0 0 0 0-2.828l-10-10a2 2 0 1 0-2.828 2.828L23.172 14H4a2 2 0 1 0 0 4h19.172l-6.586 6.586c-.39.39-.586.902-.586 1.414s.195 1.024.586 1.414a2 2 0 0 0 2.828 0z"/></symbol>

<symbol id="icon-icecream1" viewBox="0 0 32 32">
<path d="M8.225 9.526l7.775 22.474 7.775-22.474z"></path>
<path d="M13.027 3.678c-2.639 0-4.802 2.156-4.802 4.802h9.604c0-2.639-2.136-4.802-4.802-4.802z"></path>
<path d="M16 3.149c0.889-0.51 2.143-0.98 4.194-0.634-0.81-1.496-2.411-2.515-4.214-2.515-1.829 0-3.43 1.019-4.214 2.541 1.757-0.431 3.345 0.124 4.234 0.608z"></path>
<path d="M17.196 4.038c1.196 1.117 1.953 2.692 1.953 4.443v0h4.626c0-2.639-2.548-5.828-6.579-4.443z"></path>
</symbol>

<symbol id="icon-icecream2" viewBox="0 0 32 32">
<path d="M31.117 5.104c-0.429-1.016-1.047-1.924-1.837-2.699-0.791-0.775-1.711-1.376-2.734-1.785-0.987-0.394-2.027-0.594-3.094-0.594-1.094 0-2.161 0.21-3.169 0.625-0.95 0.391-1.808 0.946-2.555 1.654-1.1-0.517-2.303-0.787-3.539-0.787-1.089-0-2.151 0.208-3.155 0.619-1.041 0.426-1.972 1.050-2.768 1.855-0.786 0.796-1.392 1.727-1.801 2.768-0.391 0.996-0.585 2.049-0.577 3.13 0.009 1.095 0.224 2.161 0.641 3.169 0.186 0.449 0.407 0.877 0.664 1.282l-6.64 13.209c-0.288 0.572-0.388 1.209-0.291 1.841 0.099 0.647 0.396 1.232 0.859 1.693l0.003 0.003c0.011 0.011 0.022 0.022 0.033 0.032 0.57 0.551 1.322 0.854 2.116 0.854 0.496 0 0.99-0.122 1.429-0.354l13.078-6.894c0.396 0.24 0.812 0.448 1.248 0.621 0.999 0.397 2.052 0.599 3.13 0.599 1.097 0 2.163-0.208 3.169-0.619 1.052-0.429 1.987-1.059 2.779-1.873 0.695-0.713 1.25-1.534 1.65-2.439 0.387-0.874 0.618-1.802 0.688-2.758 0.109-1.486-0.185-2.972-0.835-4.294 0.712-0.781 1.261-1.677 1.632-2.665 0.374-0.995 0.552-2.041 0.531-3.108s-0.242-2.105-0.655-3.084zM22.158 23.648c-0.612 0-1.225-0.091-1.816-0.273-0.855-0.263-1.663-0.715-2.353-1.357-0.039-0.036-0.078-0.073-0.116-0.111l-7.864-7.714c-0.038-0.038-0.076-0.076-0.113-0.114-0.655-0.677-1.123-1.476-1.402-2.326-0.687-2.090-0.231-4.49 1.406-6.146 1.179-1.193 2.733-1.791 4.289-1.791 1.179 0 2.358 0.344 3.375 1.032 0.142 0.096 0.304 0.143 0.465 0.143 0.244 0 0.485-0.109 0.645-0.316 0.145-0.188 0.302-0.369 0.473-0.543 1.181-1.204 2.743-1.808 4.306-1.808 1.523 0 3.046 0.573 4.22 1.723 2.338 2.29 2.414 6.062 0.169 8.444-0.196 0.208-0.403 0.399-0.619 0.572-0.336 0.27-0.405 0.751-0.155 1.103 1.648 2.329 1.453 5.571-0.606 7.686-1.169 1.2-2.733 1.797-4.302 1.797zM3.631 29.587c-0.113 0.059-0.236 0.089-0.358 0.089-0.19 0-0.377-0.071-0.519-0.208-0.004-0.004-0.008-0.008-0.012-0.012-0.231-0.23-0.283-0.584-0.137-0.875l6.206-12.345 7.043 6.908-12.223 6.443z"></path>
<path d="M3.274 32c-0.802 0-1.56-0.306-2.135-0.862-0.011-0.011-0.022-0.022-0.033-0.033-0.47-0.468-0.77-1.059-0.87-1.711-0.098-0.638 0.004-1.28 0.294-1.857l6.633-13.195c-0.254-0.402-0.475-0.831-0.658-1.273-0.418-1.012-0.635-2.081-0.643-3.179-0.008-1.084 0.186-2.14 0.579-3.14 0.41-1.045 1.018-1.979 1.807-2.777 0.798-0.807 1.732-1.433 2.777-1.861 1.008-0.412 2.073-0.621 3.165-0.621 1.236 0 2.425 0.263 3.534 0.782 0.745-0.704 1.603-1.258 2.55-1.647 1.012-0.416 2.082-0.627 3.18-0.627 1.070 0 2.114 0.201 3.103 0.596 1.026 0.41 1.949 1.012 2.743 1.79 0.793 0.777 1.413 1.687 1.843 2.707 0.415 0.982 0.636 2.023 0.657 3.094s-0.158 2.12-0.533 3.118c-0.37 0.986-0.917 1.88-1.625 2.66 0.651 1.331 0.938 2.814 0.83 4.292-0.070 0.959-0.303 1.89-0.691 2.767-0.401 0.908-0.958 1.731-1.655 2.447-0.795 0.816-1.733 1.449-2.788 1.879-1.009 0.412-2.079 0.621-3.18 0.621-1.082 0-2.138-0.202-3.14-0.601-0.428-0.17-0.845-0.377-1.239-0.615l-13.065 6.887c-0.443 0.233-0.941 0.357-1.441 0.357zM14.189 1.545c-1.086 0-2.144 0.208-3.145 0.617-1.038 0.424-1.966 1.046-2.759 1.849-0.784 0.793-1.388 1.721-1.795 2.759-0.39 0.993-0.583 2.043-0.575 3.12 0.009 1.091 0.224 2.154 0.639 3.159 0.184 0.444 0.406 0.874 0.662 1.277l0.008 0.013-0.007 0.014-6.64 13.209c-0.285 0.567-0.385 1.198-0.289 1.825 0.099 0.641 0.393 1.222 0.851 1.678 0.014 0.014 0.025 0.025 0.036 0.035 0.565 0.546 1.31 0.847 2.098 0.847 0.491 0 0.981-0.121 1.416-0.35l13.092-6.901 0.013 0.008c0.395 0.24 0.814 0.448 1.244 0.619 0.995 0.396 2.045 0.597 3.12 0.597 1.093 0 2.156-0.207 3.159-0.617 1.048-0.428 1.98-1.056 2.77-1.867 0.692-0.711 1.246-1.529 1.645-2.431 0.385-0.871 0.616-1.796 0.686-2.75 0.108-1.474-0.18-2.954-0.833-4.281l-0.008-0.016 0.012-0.014c0.709-0.778 1.257-1.672 1.627-2.657 0.372-0.992 0.551-2.034 0.529-3.098s-0.241-2.098-0.653-3.074c-0.428-1.013-1.044-1.918-1.831-2.69-0.789-0.773-1.706-1.371-2.725-1.779-0.983-0.393-2.021-0.592-3.084-0.592-1.091 0-2.154 0.21-3.159 0.623-0.946 0.389-1.803 0.943-2.547 1.648l-0.013 0.013-0.017-0.008c-1.107-0.52-2.293-0.784-3.527-0.784zM3.274 29.703c-0.203 0-0.394-0.077-0.538-0.216l-0.012-0.012c-0.238-0.237-0.295-0.601-0.142-0.906l6.222-12.378 0.026 0.026 7.069 6.934-12.255 6.46c-0.114 0.060-0.242 0.092-0.37 0.092zM8.819 16.281l-6.189 12.312c-0.143 0.284-0.090 0.623 0.132 0.843l0.012 0.011c0.134 0.129 0.312 0.201 0.501 0.201 0.12 0 0.239-0.030 0.345-0.086l12.19-6.426-6.99-6.856zM22.158 23.675c-0.618 0-1.232-0.092-1.823-0.274-0.89-0.274-1.685-0.732-2.363-1.363-0.039-0.037-0.078-0.074-0.117-0.111l-7.864-7.714c-0.039-0.038-0.076-0.076-0.114-0.115-0.644-0.666-1.118-1.452-1.408-2.336-0.722-2.196-0.18-4.562 1.413-6.174 1.146-1.16 2.676-1.799 4.308-1.799v0.054c-1.617 0-3.133 0.633-4.27 1.783-1.579 1.598-2.115 3.942-1.4 6.119 0.288 0.877 0.758 1.656 1.396 2.316 0.037 0.038 0.075 0.076 0.113 0.114l7.864 7.714c0.038 0.037 0.077 0.074 0.116 0.111 0.672 0.625 1.46 1.080 2.342 1.351 0.586 0.18 1.195 0.271 1.808 0.271 1.639 0 3.16-0.635 4.283-1.789 2.020-2.074 2.273-5.292 0.603-7.651-0.256-0.361-0.185-0.862 0.161-1.139 0.217-0.174 0.425-0.366 0.617-0.57 1.081-1.146 1.659-2.651 1.627-4.237s-0.669-3.066-1.795-4.169c-1.129-1.106-2.621-1.715-4.201-1.715-1.626 0-3.148 0.639-4.286 1.8-0.167 0.171-0.326 0.352-0.471 0.54-0.16 0.208-0.403 0.327-0.666 0.327-0.171 0-0.337-0.051-0.48-0.148-0.993-0.672-2.155-1.027-3.36-1.027l-0-0.027 0-0.027c1.216 0 2.389 0.359 3.39 1.036 0.134 0.091 0.289 0.139 0.45 0.139 0.246 0 0.474-0.112 0.624-0.306 0.146-0.189 0.306-0.373 0.475-0.545 1.148-1.171 2.684-1.816 4.325-1.816 1.594 0 3.1 0.614 4.239 1.73 1.136 1.113 1.779 2.607 1.811 4.206s-0.551 3.118-1.642 4.275c-0.194 0.206-0.403 0.399-0.622 0.575-0.324 0.26-0.39 0.728-0.15 1.066 1.685 2.38 1.429 5.627-0.608 7.72-1.133 1.164-2.668 1.805-4.322 1.805z"></path>
</symbol>


<symbol id="icon-berry" viewBox="0 0 32 32">
<path d="M10.586 26.548c1.027 0.024 1.897-0.448 2.711-1.002 0.215-0.146 0.271-0.44 0.124-0.654s-0.439-0.271-0.654-0.124c-0.767 0.522-1.442 0.866-2.179 0.846-0.968 0.027-1.857-0.61-2.94-1.39-2.648-2.053-3.911-4.779-4.875-7.952-0.193-0.634-0.481-1.694-0.455-2.176 0.063-1.203 0.779-2.688 1.668-3.387 0.243 0.312 0.596 0.533 0.991 0.685 0.073 0.844 0.319 1.747 0.882 2.094 0.566 0.327 1.224 0.209 1.793-0.038 0.33-0.143 0.642-0.339 0.928-0.56 0.068 0.148 0.141 0.295 0.224 0.435 0.389 0.657 0.963 1.269 1.761 1.269s1.368-0.612 1.757-1.269c0.096-0.161 0.182-0.33 0.258-0.5 0.312 0.252 0.66 0.476 1.028 0.633 0.564 0.241 1.212 0.353 1.773 0.029 0.69-0.398 0.88-1.213 0.889-1.976 0.46-0.13 0.805-0.344 1.141-0.617 0.351 0.327 0.662 0.77 0.908 1.26-0.833 0.403-1.573 1.067-2.053 1.806-0.402 0.619-0.582 1.528-0.71 2.079-0.659 2.828-0.924 5.615 0.256 8.494 0.467 1.035 0.903 2.117 1.946 2.688 1.017 0.619 2.172 0.456 3.302 0.342 3.082-0.418 5.363-2.041 7.483-4.026 0.413-0.387 1.111-0.995 1.447-1.653 0.564-1.107 0.732-2.577 0.3-3.769 0.418-0.503 0.386-1.191 0.231-1.794-0.165-0.643-0.48-1.25-0.889-1.659-0.801-0.801-2.102-0.812-2.924-0.042-0.069 0.007-0.139 0.011-0.207 0.024 0.368-0.733 0.968-1.272 1.729-1.575 0.308-0.122 0.594-0.315 0.695-0.667s-0.088-0.718-0.347-0.941c-0.269-0.232-0.602-0.377-0.954-0.446s-0.729-0.066-1.081 0.095c-1.015 0.466-1.77 1.222-2.218 2.286-0.023-0.069-0.053-0.135-0.084-0.202 0.093-0.455 0.086-0.917-0.079-1.336-0.188-0.475-0.604-0.876-1.169-1.027-0.558-0.15-1.241-0.12-1.88 0.059-0.521 0.146-1.049 0.404-1.329 0.869-0.193 0.008-0.384 0.043-0.575 0.085-0.324-0.689-0.761-1.322-1.32-1.784 0.142-0.73-0.278-1.403-0.788-1.924-0.534-0.546-1.204-0.971-1.838-1.141-1.253-0.336-2.55 0.405-2.907 1.647-0.119 0.083-0.228 0.174-0.328 0.274-0.106-1.044 0.194-2.029 0.837-2.844 0.232-0.294 0.392-0.639 0.296-1.019s-0.464-0.619-0.841-0.69c-0.098-0.018-0.196-0.030-0.296-0.034v0c-0.298-0.013-0.602 0.039-0.891 0.138-0.386 0.132-0.753 0.35-1.002 0.701-0.792 1.116-1.111 2.373-0.873 3.791-0.112-0.118-0.238-0.224-0.376-0.319-0.167-0.516-0.442-0.979-0.847-1.301-0.451-0.358-1.077-0.515-1.717-0.343-0.633 0.17-1.303 0.595-1.838 1.141-0.445 0.455-0.822 1.025-0.817 1.649-1.368 0.849-2.202 2.661-2.286 4.261-0.044 0.835 0.305 1.863 0.498 2.498 0.988 3.252 2.341 6.217 5.208 8.435 1.080 0.778 2.143 1.599 3.502 1.569zM11.817 5.276c0.149-0.028 0.282 0.016 0.418 0.029-0.012 0.035-0.040 0.098-0.107 0.183-0.769 0.974-1.139 2.186-1.035 3.441-0.311-0.081-0.595-0.056-0.888-0.031-0.244-1.242-0.001-2.206 0.694-3.185 0.274-0.293 0.565-0.366 0.919-0.437zM14.729 7.858c0.096 0.006 0.193 0.021 0.29 0.047 0.388 0.104 0.993 0.464 1.411 0.891s0.603 0.874 0.536 1.125c-0.18 0.367-0.457 0.48-0.788 0.63-0.081-0.423-0.212-0.823-0.401-1.15-0.328-0.568-0.858-0.951-1.448-1.109-0.209-0.056-0.426-0.074-0.643-0.072 0.281-0.251 0.654-0.387 1.045-0.363zM6.828 7.861c0.245-0.013 0.438 0.067 0.624 0.215 0.052 0.041 0.101 0.093 0.15 0.147-0.233-0.007-0.465 0.011-0.688 0.070-0.591 0.158-1.121 0.541-1.448 1.109-0.169 0.292-0.295 0.64-0.378 1.011-0.26-0.135-0.418-0.296-0.47-0.491-0.067-0.251 0.118-0.698 0.536-1.125s1.023-0.787 1.411-0.891c0.095-0.026 0.183-0.040 0.264-0.044zM7.428 9.15c0.277-0.019 0.563 0.042 0.824 0.193 0.191 0.11 0.344 0.259 0.462 0.427-0.33 0.409-0.536 0.921-0.536 1.483 0 0.217 0.035 0.446 0.084 0.678-0.29 0.265-0.644 0.512-0.982 0.658-0.42 0.182-0.764 0.192-0.949 0.085-0.225-0.13-0.41-0.58-0.417-1.177s0.165-1.279 0.365-1.627c0.251-0.435 0.687-0.69 1.149-0.721zM13.813 9.15c0.462 0.032 0.898 0.287 1.149 0.721 0.201 0.348 0.374 1.029 0.368 1.627s-0.193 1.047-0.419 1.177c-0.183 0.106-0.521 0.097-0.936-0.081-0.379-0.162-0.782-0.45-1.090-0.752 0.14-0.695-0.037-1.481-0.409-1.996 0.121-0.201 0.292-0.375 0.512-0.502 0.261-0.151 0.547-0.213 0.824-0.194zM10.565 9.81c0.804 0 1.442 0.64 1.442 1.443 0 0.402-0.189 1.080-0.493 1.594s-0.689 0.809-0.949 0.809c-0.26 0-0.649-0.295-0.953-0.809s-0.493-1.193-0.493-1.594c0-0.803 0.642-1.443 1.446-1.443zM22.121 11.687c0.247-0.008 0.473 0.011 0.63 0.053 0.304 0.081 0.443 0.229 0.535 0.461-0.13-0.065-0.264-0.119-0.404-0.157-0.521-0.14-1.096-0.081-1.596 0.207-0.234 0.135-0.457 0.321-0.664 0.535-0.090-0.165-0.117-0.31-0.084-0.436 0.047-0.176 0.35-0.42 0.829-0.553 0.239-0.067 0.507-0.102 0.754-0.11zM27.149 11.919c0.088-0.006 0.189-0.001 0.293 0.018 0.202 0.040 0.402 0.138 0.513 0.23-0.016 0.013 0.009-0.004-0.073 0.029-0.971 0.386-1.758 1.107-2.23 2.053-0.163-0.158-0.351-0.233-0.536-0.323 0.345-0.975 0.919-1.549 1.819-1.962 0.051-0.023 0.126-0.040 0.214-0.046zM3.86 12.278c-0.259 0.001-0.469 0.21-0.469 0.469v1.198c0.001 0.259 0.21 0.469 0.469 0.469 0.259-0.001 0.469-0.21 0.469-0.469v-1.198c-0-0.259-0.21-0.469-0.469-0.469zM19.811 15.531c0.295 0.511 0.853 0.71 1.391 0.772 0.284 0.033 0.575 0.026 0.859-0.007-0.008 0.113-0.018 0.225-0.017 0.339 0.007 0.664 0.17 1.387 0.793 1.747s1.329 0.137 1.907-0.188c0.117-0.065 0.227-0.14 0.337-0.216 0.121 0.297 0.274 0.586 0.466 0.843 0.321 0.428 0.768 0.805 1.353 0.805 0.703 0 1.196-0.52 1.534-1.076 0.367 0.101 0.684 0.070 1.023 0.042 0.233 0.862 0.101 2.064-0.308 2.866-0.175 0.343-0.838 1.007-1.251 1.393-2.060 1.928-4.138 3.392-6.949 3.776-1.133 0.114-2.044 0.201-2.722-0.216-0.7-0.379-1.083-1.21-1.55-2.247-1.074-2.628-0.846-5.161-0.206-7.91 0.128-0.551 0.374-1.456 0.584-1.779 0.535-0.824 1.647-1.581 2.561-1.742 0.059 0.304 0.214 0.586 0.399 0.866-0.341 0.603-0.564 1.309-0.204 1.933zM22.421 12.909c0.371 0.025 0.722 0.23 0.924 0.581 0.080 0.138 0.124 0.285 0.143 0.433-0.411 0.171-0.775 0.465-1.013 0.877-0.090 0.156-0.161 0.331-0.223 0.514-0.31 0.064-0.653 0.088-0.943 0.054-0.376-0.043-0.608-0.178-0.683-0.307-0.091-0.158-0.053-0.544 0.191-0.977s0.66-0.858 0.94-1.020c0.21-0.121 0.441-0.171 0.664-0.156zM18.717 13.629c-0.17-0.004-0.328 0.086-0.414 0.233l-0.51 0.885c-0.13 0.224-0.053 0.511 0.171 0.642s0.513 0.053 0.643-0.172l0.511-0.884c0.129-0.225 0.051-0.511-0.174-0.641-0.069-0.040-0.147-0.061-0.227-0.062zM24.214 14.69c0.223-0.014 0.453 0.034 0.664 0.156 0.561 0.324 0.75 1.026 0.426 1.587-0.162 0.28-0.588 0.696-1.021 0.94s-0.818 0.284-0.976 0.193c-0.158-0.091-0.317-0.446-0.322-0.943s0.142-1.073 0.304-1.353c0.202-0.35 0.553-0.555 0.925-0.58zM28.966 15.329c0.229 0.229 0.52 0.746 0.643 1.227s0.062 0.865-0.067 0.994c-0.074 0.074-0.21 0.131-0.431 0.139-0.081 0.001-0.177-0.011-0.272-0.023 0.104-0.324 0.165-0.651 0.165-0.957 0-0.578-0.236-1.105-0.618-1.486-0.086-0.086-0.183-0.163-0.263-0.235 0.316-0.001 0.613 0.113 0.842 0.341zM7.85 15.27c-0.259 0-0.469 0.21-0.47 0.469v1.195c-0.001 0.26 0.21 0.472 0.47 0.472 0.261 0.001 0.473-0.211 0.472-0.472v-1.195c-0.001-0.26-0.212-0.47-0.472-0.469zM10.514 15.544c-0.259 0.001-0.469 0.21-0.469 0.469v1.195c-0.001 0.26 0.209 0.471 0.469 0.472s0.471-0.212 0.47-0.472v-1.195c-0.001-0.259-0.211-0.469-0.47-0.469zM26.901 15.544c0.648 0 1.165 0.516 1.165 1.163 0 0.324-0.162 0.895-0.415 1.323s-0.567 0.655-0.749 0.655c-0.148 0-0.378-0.131-0.602-0.43-0.197-0.263-0.363-0.624-0.462-0.96 0.106-0.127 0.201-0.258 0.279-0.393 0.224-0.387 0.305-0.818 0.268-1.234 0.155-0.078 0.328-0.125 0.516-0.125zM5.457 16.267c-0.26-0.001-0.472 0.21-0.472 0.47v1.194c-0.002 0.261 0.21 0.474 0.472 0.473 0.261 0 0.471-0.212 0.47-0.473v-1.194c0-0.26-0.21-0.47-0.47-0.47zM12.613 16.552c-0.261-0.001-0.473 0.211-0.472 0.472v1.195c0 0.26 0.212 0.471 0.472 0.47 0.259-0 0.469-0.211 0.469-0.47v-1.195c0.001-0.26-0.209-0.471-0.469-0.472zM18.158 17.253c-0.157 0.011-0.3 0.098-0.378 0.235l-0.509 0.882c-0.131 0.225-0.053 0.514 0.173 0.643 0.225 0.129 0.511 0.051 0.641-0.174l0.509-0.882c0.131-0.224 0.055-0.512-0.17-0.642-0.080-0.047-0.173-0.068-0.265-0.062zM9.791 18.433c-0.26 0-0.47 0.212-0.469 0.472v1.195c0.001 0.259 0.21 0.469 0.469 0.469s0.469-0.21 0.469-0.469v-1.195c0.001-0.26-0.209-0.471-0.469-0.472zM7.052 18.66c-0.259 0.001-0.469 0.21-0.469 0.469v1.198c0.001 0.259 0.21 0.469 0.469 0.469s0.469-0.21 0.469-0.469v-1.198c-0.001-0.259-0.21-0.469-0.469-0.469zM20.899 18.819c-0.171-0.004-0.331 0.086-0.417 0.235l-0.51 0.885c-0.129 0.225-0.052 0.511 0.173 0.641s0.512 0.054 0.643-0.171l0.51-0.884c0.13-0.225 0.053-0.513-0.173-0.642-0.069-0.040-0.146-0.062-0.226-0.063zM28.617 19.344c-0.171-0.003-0.33 0.086-0.416 0.234l-0.51 0.884c-0.13 0.225-0.053 0.513 0.173 0.643s0.513 0.053 0.643-0.172l0.51-0.885c0.129-0.225 0.052-0.511-0.173-0.641-0.069-0.040-0.147-0.062-0.227-0.063zM23.758 19.679c-0.172-0.004-0.331 0.087-0.417 0.236l-0.511 0.884c-0.129 0.225-0.051 0.511 0.174 0.641s0.511 0.053 0.641-0.171l0.51-0.885c0.13-0.224 0.053-0.511-0.171-0.642-0.069-0.040-0.146-0.062-0.226-0.063zM18.355 19.7c-0.172-0.004-0.332 0.086-0.418 0.235l-0.51 0.885c-0.129 0.225-0.051 0.511 0.174 0.641s0.511 0.054 0.642-0.17l0.51-0.885c0.13-0.225 0.053-0.513-0.172-0.643-0.069-0.040-0.146-0.062-0.226-0.063zM12.613 20.313c-0.26-0.001-0.471 0.209-0.472 0.469v1.198c0.001 0.26 0.212 0.47 0.472 0.469 0.259-0 0.469-0.21 0.469-0.469v-1.198c-0.001-0.259-0.21-0.469-0.469-0.469zM8.346 21.323c-0.259 0-0.469 0.211-0.469 0.47v1.197c0 0.259 0.21 0.469 0.469 0.47 0.26 0.001 0.472-0.21 0.472-0.47v-1.197c0-0.26-0.212-0.471-0.472-0.47zM25.944 21.727c-0.171-0.004-0.33 0.088-0.415 0.236l-0.509 0.882c-0.13 0.224-0.053 0.511 0.171 0.642s0.513 0.053 0.643-0.173l0.509-0.882c0.13-0.225 0.053-0.513-0.172-0.642-0.069-0.040-0.147-0.061-0.227-0.062zM10.514 22.047c-0.259 0-0.469 0.21-0.469 0.469v1.198c0.001 0.259 0.21 0.469 0.469 0.469s0.469-0.21 0.47-0.469v-1.198c-0.001-0.259-0.211-0.469-0.47-0.469zM18.173 22.738c-0.171-0.004-0.33 0.086-0.416 0.234l-0.51 0.884c-0.129 0.225-0.051 0.511 0.174 0.641s0.51 0.052 0.64-0.171l0.51-0.885c0.128-0.224 0.052-0.51-0.172-0.64-0.069-0.040-0.146-0.062-0.226-0.063zM23.747 22.813c-0.171-0.003-0.331 0.086-0.417 0.235l-0.51 0.885c-0.129 0.225-0.051 0.511 0.174 0.641s0.51 0.052 0.64-0.172l0.51-0.884c0.13-0.224 0.053-0.511-0.171-0.642-0.069-0.040-0.146-0.062-0.226-0.063zM21.206 24.49c-0.17-0.004-0.328 0.086-0.414 0.233l-0.51 0.885c-0.128 0.224-0.052 0.51 0.172 0.64s0.511 0.053 0.642-0.171l0.51-0.884c0.129-0.225 0.051-0.511-0.174-0.641-0.069-0.040-0.146-0.061-0.226-0.062z"></path>
</symbol>
<symbol id="icon-cafe" viewBox="0 0 32 32">
<path d="M31.932 10.527l-3.007-5.927v-2.35c0-0.345-0.28-0.625-0.625-0.625h-24.6c-0.345 0-0.625 0.28-0.625 0.625v2.351l-3.007 5.926c-0.044 0.088-0.068 0.185-0.068 0.283v1.538c0 1.827 1.331 3.348 3.075 3.646v13.132h-0.64c-0.345 0-0.625 0.28-0.625 0.625s0.28 0.625 0.625 0.625h1.26c0.002 0 0.003 0 0.005 0h25.865c0.345 0 0.625-0.28 0.625-0.625s-0.28-0.625-0.625-0.625h-0.64v-13.132c1.743-0.298 3.075-1.819 3.075-3.646v-1.538c0-0.098-0.023-0.195-0.068-0.283zM4.325 2.875h23.35v1.25h-23.35v-1.25zM19.697 10.746l-0.545-5.371h3.765l1.683 5.528v1.445c0 1.351-1.099 2.45-2.45 2.45s-2.45-1.099-2.45-2.45v-1.538c0-0.021-0.001-0.042-0.003-0.063zM18.45 10.841v1.506h-0c0 1.351-1.099 2.45-2.45 2.45s-2.45-1.099-2.45-2.45v-1.506l0.555-5.466h3.79l0.555 5.466zM12.848 5.375l-0.545 5.371c-0.002 0.021-0.003 0.042-0.003 0.063v1.538c0 1.351-1.099 2.45-2.45 2.45s-2.45-1.099-2.45-2.45v-1.444l1.683-5.528h3.765zM1.25 12.347v-1.388l2.834-5.584h3.693l-1.599 5.252c-0.018 0.059-0.027 0.12-0.027 0.182v1.538c0 1.351-1.099 2.45-2.45 2.45s-2.45-1.099-2.45-2.45zM25.175 29.125h-3.75v-4.375h0.625c0.345 0 0.625-0.28 0.625-0.625s-0.28-0.625-0.625-0.625h-0.625v-4.375h3.75v10zM27.675 29.125h-1.25v-10.625c0-0.345-0.28-0.625-0.625-0.625h-19.6c-0.345 0-0.625 0.28-0.625 0.625v8.75c0 0.345 0.28 0.625 0.625 0.625h13.975v1.25h-15.85v-13.132c1.018-0.174 1.896-0.765 2.45-1.591 0.665 0.991 1.795 1.645 3.075 1.645s2.41-0.654 3.075-1.645c0.665 0.991 1.795 1.645 3.075 1.645s2.41-0.654 3.075-1.645c0.665 0.991 1.795 1.645 3.075 1.645s2.41-0.654 3.075-1.645c0.554 0.826 1.432 1.417 2.45 1.591v13.132zM12.921 19.125h2.178l-1.188 1.188c-0.244 0.244-0.244 0.64-0 0.884 0.122 0.122 0.282 0.183 0.442 0.183s0.32-0.061 0.442-0.183l2.072-2.072h3.309v7.5h-13.35v-1.404l6.096-6.096zM6.825 23.453v-4.328h4.328l-4.328 4.328zM30.75 12.347c0 1.351-1.099 2.45-2.45 2.45s-2.45-1.099-2.45-2.45v-1.538c0-0.062-0.009-0.123-0.027-0.182l-1.599-5.252h3.693l2.834 5.584v1.388z"></path>
<path d="M13.072 22.66c0.159 0 0.319-0.061 0.441-0.182l0.010-0.010c0.245-0.243 0.246-0.639 0.003-0.884s-0.639-0.246-0.884-0.003l-0.010 0.010c-0.245 0.243-0.246 0.639-0.003 0.884 0.122 0.123 0.283 0.184 0.443 0.184zM0.64 29.125h-0.015c-0.345 0-0.625 0.28-0.625 0.625s0.28 0.625 0.625 0.625h0.015c0.345 0 0.625-0.28 0.625-0.625s-0.28-0.625-0.625-0.625zM31.375 29.125h-0.015c-0.345 0-0.625 0.28-0.625 0.625s0.28 0.625 0.625 0.625h0.015c0.345 0 0.625-0.28 0.625-0.625s-0.28-0.625-0.625-0.625z"></path>
</symbol>
<symbol id="icon-milk" viewBox="0 0 32 32">
<path d="M20.357 20.187c-0.684 0-1.232-0.165-1.654-0.495-0.519-0.403-0.703-0.968-0.703-1.359h2c0-0.113-0.022-0.186-0.067-0.217 0.003 0.003 0.331 0.203 1.491-0.086 2.009-0.503 3.91-4.896 3.91-6.363 0-0.977-0.17-1.349-0.312-1.491-0.12-0.119-0.319-0.181-0.68-0.175-1.659 0-3.436 1.153-3.454 1.165l-1.109-1.663c0.092-0.061 2.278-1.501 4.555-1.501h0.038c0.858 0 1.553 0.254 2.059 0.755 0.81 0.803 0.904 2.046 0.904 2.911 0 2.005-2.161 7.487-5.424 8.302-0.581 0.146-1.097 0.219-1.552 0.219z"></path>
<path d="M22 15.334c-1.029-7.381 0-9.332 0-9.999 0 0-0.667-0.669-5.333-0.002-4.62 0.66-6.667-2-9.333-2s-2.667 1.335-2.667 1.335c2 1.999 3.127 2.777 2 10.665-1.333 9.331 3.333 12.666 3.333 12.666 0.719 0.771 1.333 0.667 1.333 0.667h6s0.521 0.104 1.333-0.667c0 0 4.639-3.307 3.333-12.666z"></path>
<path d="M10.499 26.669h7.67c0.879-0.847 3.504-4.027 2.511-11.151-0.229-1.638-0.354-3.011-0.417-4.185h-11.845c-0.055 1.157-0.194 2.527-0.431 4.189-1.013 7.091 1.616 10.285 2.513 11.147z"></path>
</symbol>
<symbol id="icon-snowflake" viewBox="0 0 32 32">
<path d="M28 14.667h-0.8l0.4-0.4c0.533-0.533 0.533-1.333 0-1.867s-1.333-0.533-1.867 0l-2.267 2.267h-4.267l3.867-3.867h3.2c0.8 0 1.333-0.533 1.333-1.333s-0.533-1.333-1.333-1.333h-0.533l0.4-0.4c0.533-0.533 0.533-1.333 0-1.867s-1.333-0.533-1.867 0l-0.4 0.4v-0.667c0-0.8-0.533-1.333-1.333-1.333s-1.333 0.533-1.333 1.333v3.2l-3.867 4v-4.267l2.267-2.267c0.533-0.533 0.533-1.333 0-1.867s-1.333-0.533-1.867 0l-0.4 0.4v-0.8c0-0.8-0.533-1.333-1.333-1.333s-1.333 0.533-1.333 1.333v0.8l-0.4-0.4c-0.533-0.533-1.333-0.533-1.867 0s-0.533 1.333 0 1.867l2.267 2.267v4.267l-3.867-4v-3.2c0-0.8-0.533-1.333-1.333-1.333s-1.333 0.533-1.333 1.333v0.533l-0.533-0.4c-0.533-0.533-1.333-0.533-1.867 0s-0.533 1.333 0 1.867l0.4 0.4h-0.533c-0.8 0-1.333 0.533-1.333 1.333s0.533 1.333 1.333 1.333h3.2l4 4h-4.267l-2.267-2.267c-0.533-0.533-1.333-0.533-1.867 0s-0.533 1.333 0 1.867l0.533 0.533c-0.533 0.133-0.933 0.667-0.933 1.2s0.4 1.067 0.933 1.2l-0.533 0.533c-0.533 0.533-0.533 1.333 0 1.867 0.267 0.267 0.533 0.4 0.933 0.4s0.667-0.133 0.933-0.4l2.267-2.267h4.267l-3.867 3.867h-3.333c-0.8 0-1.333 0.533-1.333 1.333s0.533 1.333 1.333 1.333h0.533l-0.4 0.4c-0.533 0.533-0.533 1.333 0 1.867 0.267 0.4 0.533 0.533 0.933 0.533s0.667-0.133 0.933-0.4l0.4-0.4v0.533c0 0.8 0.533 1.333 1.333 1.333s1.333-0.533 1.333-1.333v-3.2l3.867-3.867v5.6l-2.267 2.267c-0.533 0.533-0.533 1.333 0 1.867s1.333 0.533 1.867 0l0.533-0.533c0.133 0.533 0.667 0.933 1.2 0.933s1.067-0.4 1.2-0.933l0.533 0.533c0.267 0.267 0.667 0.4 0.933 0.4s0.667-0.133 0.933-0.4c0.533-0.533 0.533-1.333 0-1.867l-2.133-2.4v-5.6l3.867 3.867v3.2c0 0.8 0.533 1.333 1.333 1.333s1.333-0.533 1.333-1.333v-0.533l0.4 0.4c0.267 0.267 0.667 0.4 0.933 0.4s0.667-0.133 0.933-0.4c0.533-0.533 0.533-1.333 0-1.867l-0.4-0.4h0.533c0.8 0 1.333-0.533 1.333-1.333s-0.533-1.333-1.333-1.333h-3.2l-3.867-3.867h4.267l2.267 2.267c0.267 0.267 0.667 0.4 0.933 0.4s0.667-0.133 0.933-0.4c0.533-0.533 0.533-1.333 0-1.867l-0.4-0.4h0.8c0.8 0 1.333-0.533 1.333-1.333s-0.533-1.333-1.333-1.333z"></path>
</symbol>
<symbol id="icon-youtube" viewBox="0 0 32 32">
<path d="M31.681 9.6s-0.313-2.206-1.275-3.175c-1.219-1.275-2.581-1.281-3.206-1.356-4.475-0.325-11.194-0.325-11.194-0.325h-0.012s-6.719 0-11.194 0.325c-0.625 0.075-1.987 0.081-3.206 1.356-0.963 0.969-1.269 3.175-1.269 3.175s-0.319 2.588-0.319 5.181v2.425c0 2.587 0.319 5.181 0.319 5.181s0.313 2.206 1.269 3.175c1.219 1.275 2.819 1.231 3.531 1.369 2.563 0.244 10.881 0.319 10.881 0.319s6.725-0.012 11.2-0.331c0.625-0.075 1.988-0.081 3.206-1.356 0.962-0.969 1.275-3.175 1.275-3.175s0.319-2.587 0.319-5.181v-2.425c-0.006-2.588-0.325-5.181-0.325-5.181zM12.694 20.15v-8.994l8.644 4.513-8.644 4.481z"></path>
</symbol>
<symbol id="icon-like" viewBox="0 0 32 32">
<path d="M28 16.2c0-1.6-1.25-2.45-3-2.45h-5.050c0.35-1.35 0.55-2.65 0.55-3.75 0-4.35-1.2-5.25-2.25-5.25-0.7 0-1.2 0.050-1.9 0.5-0.2 0.1-0.3 0.3-0.35 0.5l-0.75 4.050c-0.8 2.15-2.85 4-4.5 5.25v10.7c0.55 0 1.25 0.3 1.9 0.65 0.8 0.4 1.65 0.8 2.6 0.8h7.15c1.5 0 2.6-1.2 2.6-2.25 0-0.2 0-0.4-0.050-0.55 0.95-0.35 1.55-1.15 1.55-2.050 0-0.45-0.1-0.85-0.25-1.15 0.55-0.4 1.15-1.050 1.15-1.85 0-0.4-0.2-0.9-0.5-1.25 0.65-0.5 1.1-1.2 1.1-1.9zM26.45 16.2c0 0.95-1 1.050-1.15 1.5-0.15 0.5 0.6 0.7 0.6 1.6 0 0.95-1.15 0.95-1.3 1.4-0.2 0.55 0.35 0.75 0.35 1.65v0.15c-0.15 0.75-1.3 0.8-1.5 1.1-0.2 0.35 0.050 0.55 0.050 1.35 0 0.45-0.5 0.75-1.1 0.75h-7.15c-0.55 0-1.25-0.3-1.9-0.65-0.6-0.3-1.2-0.6-1.85-0.75v-7.95c1.85-1.4 4.25-3.55 5.2-6.15 0-0.050 0-0.1 0.050-0.1l0.7-3.75c0.25-0.1 0.45-0.1 0.85-0.1 0.15 0 0.75 0.9 0.75 3.75 0 1.1-0.2 2.35-0.6 3.75h-0.2c-0.4 0-0.75 0.35-0.75 0.75s0.35 0.75 0.75 0.75h6.75c0.75 0 1.45 0.35 1.45 0.95z"></path>
<path d="M10 27.25h-4.5c-0.85 0-1.5-0.65-1.5-1.5v-10.5c0-0.85 0.65-1.5 1.5-1.5h4.5c0.85 0 1.5 0.65 1.5 1.5v10.5c0 0.85-0.65 1.5-1.5 1.5zM5.5 15.25v10.5h4.5v-10.5h-4.5z"></path>
</symbol>

</defs></svg>